<?xml version="1.0" encoding="utf-8"?>
<!-- Generator: Adobe Illustrator 19.2.1, SVG Export Plug-In . SVG Version: 6.00 Build 0)  -->
<svg version="1.1" id="Capa_1" xmlns="http://www.w3.org/2000/svg" xmlns:xlink="http://www.w3.org/1999/xlink" x="0px" y="0px"
	 viewBox="0 0 113.4 79.4" style="enable-background:new 0 0 113.4 79.4;" xml:space="preserve">
<g>
	<path d="M9,4.7L49.8,37c1.8,1.4,4.4,2.1,6.9,2c2.5,0.1,5-0.5,6.9-2l40.8-32.3c3.3-2.6,2.5-4.7-1.6-4.7H10.6C6.4,0,5.7,2.1,9,4.7
		L9,4.7z M9,4.7"/>
	<path d="M107.4,13.2L62.7,47.1c-1.7,1.3-3.9,1.9-6,1.8c-2.2,0-4.4-0.6-6-1.8L6,13.2c-3.3-2.5-6-1.2-6,3v55.6c0,4.2,3.4,7.6,7.5,7.6
		h98.3c4.2,0,7.5-3.4,7.5-7.6V16.2C113.4,12.1,110.7,10.7,107.4,13.2L107.4,13.2z M107.4,13.2"/>
</g>
</svg>
