<?xml version="1.0" encoding="UTF-8"?>
<svg width="117px" height="123px" viewBox="0 0 117 123" version="1.1" xmlns="http://www.w3.org/2000/svg" xmlns:xlink="http://www.w3.org/1999/xlink">
    <!-- Generator: Sketch 53.2 (72643) - https://sketchapp.com -->
    <title>logo</title>
    <desc>Created with Sketch.</desc>
    <defs>
        <filter x="-10.8%" y="-10.3%" width="121.6%" height="120.5%" filterUnits="objectBoundingBox" id="filter-1">
            <feOffset dx="0" dy="2" in="SourceAlpha" result="shadowOffsetOuter1"></feOffset>
            <feGaussianBlur stdDeviation="2" in="shadowOffsetOuter1" result="shadowBlurOuter1"></feGaussianBlur>
            <feColorMatrix values="0 0 0 0 0   0 0 0 0 0   0 0 0 0 0  0 0 0 0.5 0" type="matrix" in="shadowBlurOuter1" result="shadowMatrixOuter1"></feColorMatrix>
            <feMerge>
                <feMergeNode in="shadowMatrixOuter1"></feMergeNode>
                <feMergeNode in="SourceGraphic"></feMergeNode>
            </feMerge>
        </filter>
        <linearGradient x1="49.9867684%" y1="30.8155961%" x2="49.9867684%" y2="112.006614%" id="linearGradient-2">
            <stop stop-color="#51B1B9" offset="0%"></stop>
            <stop stop-color="#0081BE" offset="53.71%"></stop>
            <stop stop-color="#004268" offset="83.01%"></stop>
        </linearGradient>
        <linearGradient x1="50.0023579%" y1="-1.02705662%" x2="50.0023579%" y2="92.2778542%" id="linearGradient-3">
            <stop stop-color="#51B1B9" offset="0%"></stop>
            <stop stop-color="#0081BE" offset="53.71%"></stop>
            <stop stop-color="#004268" offset="83.01%"></stop>
        </linearGradient>
        <linearGradient x1="50%" y1="30.8155961%" x2="50%" y2="112.006614%" id="linearGradient-4">
            <stop stop-color="#51B1B9" offset="0%"></stop>
            <stop stop-color="#0081BE" offset="53.71%"></stop>
            <stop stop-color="#004268" offset="83.01%"></stop>
        </linearGradient>
        <linearGradient x1="50.0184401%" y1="-1.02705662%" x2="50.0184401%" y2="92.2778542%" id="linearGradient-5">
            <stop stop-color="#51B1B9" offset="0%"></stop>
            <stop stop-color="#0081BE" offset="53.71%"></stop>
            <stop stop-color="#004268" offset="83.01%"></stop>
        </linearGradient>
    </defs>
    <g id="Home" stroke="none" stroke-width="1" fill="none" fill-rule="evenodd">
        <g id="login" transform="translate(-651.000000, -270.000000)" fill-rule="nonzero">
            <g id="logo" filter="url(#filter-1)" transform="translate(654.000000, 271.000000)">
                <g id="Group" transform="translate(30.000000, 104.000000)" fill="#FFFFFF">
                    <path d="M7.48663102,7.69444444 L3.20855615,7.69444444 L2.40641711,9.75 L0.240641711,9.75 L4.3315508,0.222222222 L6.4171123,0.222222222 L10.5347594,9.75 L8.28877005,9.75 L7.48663102,7.69444444 Z M6.81818182,6.02777778 L5.37433155,2.38888889 L3.93048128,6.02777778 L6.81818182,6.02777778 Z" id="Shape"></path>
                    <path d="M17.3262032,9.75 L15.5614973,7.08333333 L15.4545455,7.08333333 L13.6096257,7.08333333 L13.6096257,9.75 L11.4973262,9.75 L11.4973262,0.222222222 L15.4812834,0.222222222 C16.2834225,0.222222222 17.0053476,0.361111111 17.5935829,0.638888889 C18.1818182,0.916666667 18.6631016,1.33333333 18.9839572,1.83333333 C19.3048128,2.36111111 19.4652406,2.97222222 19.4652406,3.66666667 C19.4652406,4.36111111 19.3048128,5 18.9839572,5.5 C18.6631016,6 18.1818182,6.41666667 17.5935829,6.66666667 L19.6524064,9.72222222 L17.3262032,9.72222222 L17.3262032,9.75 Z M16.7914439,2.41666667 C16.4705882,2.13888889 15.9625668,2 15.3475936,2 L13.6096257,2 L13.6096257,5.33333333 L15.3475936,5.33333333 C15.9893048,5.33333333 16.4705882,5.19444444 16.7914439,4.88888889 C17.1122995,4.61111111 17.2994652,4.19444444 17.2994652,3.66666667 C17.2727273,3.11111111 17.1122995,2.72222222 16.7914439,2.41666667 Z" id="Shape"></path>
                    <polygon id="Shape" points="24.4652406 6 23.2352941 7.33333333 23.2352941 9.75 21.1229947 9.75 21.1229947 0.222222222 23.2352941 0.222222222 23.2352941 4.66666667 27.2994652 0.222222222 29.6524064 0.222222222 25.855615 4.44444444 29.8930481 9.72222222 27.4064171 9.72222222"></polygon>
                    <path d="M32.3529412,9.25 C31.5775401,8.83333333 30.9893048,8.22222222 30.5614973,7.47222222 C30.1336898,6.72222222 29.9197861,5.88888889 29.9197861,4.94444444 C29.9197861,4 30.1336898,3.16666667 30.5614973,2.41666667 C30.9893048,1.66666667 31.6042781,1.08333333 32.3529412,0.638888889 C33.1283422,0.222222222 33.9839572,0 34.9197861,0 C35.8823529,0 36.7379679,0.222222222 37.486631,0.638888889 C38.2352941,1.05555556 38.8502674,1.66666667 39.2780749,2.41666667 C39.7058824,3.16666667 39.9465241,4 39.9465241,4.94444444 C39.9465241,5.88888889 39.7326203,6.72222222 39.2780749,7.47222222 C38.8502674,8.22222222 38.2352941,8.80555556 37.486631,9.25 C36.7379679,9.66666667 35.8823529,9.88888889 34.9197861,9.88888889 C33.9839572,9.88888889 33.1283422,9.69444444 32.3529412,9.25 Z M36.4171123,7.63888889 C36.8449198,7.38888889 37.1925134,7.02777778 37.459893,6.55555556 C37.7005348,6.08333333 37.8342246,5.55555556 37.8342246,4.97222222 C37.8342246,4.38888889 37.7005348,3.86111111 37.459893,3.38888889 C37.2192513,2.91666667 36.8716578,2.55555556 36.4171123,2.30555556 C35.9893048,2.05555556 35.4812834,1.91666667 34.9465241,1.91666667 C34.4117647,1.91666667 33.9037433,2.05555556 33.4759358,2.30555556 C33.0481283,2.55555556 32.7005348,2.91666667 32.4331551,3.38888889 C32.1925134,3.86111111 32.0588235,4.38888889 32.0588235,4.97222222 C32.0588235,5.55555556 32.1925134,6.08333333 32.4331551,6.55555556 C32.6737968,7.02777778 33.0213904,7.38888889 33.4759358,7.63888889 C33.9037433,7.88888889 34.4117647,8.02777778 34.9465241,8.02777778 C35.4812834,8.02777778 35.9625668,7.88888889 36.4171123,7.63888889 Z" id="Shape"></path>
                    <polygon id="Shape" points="49.973262 0.194444444 49.973262 9.72222222 48.2352941 9.72222222 43.6631016 3.94444444 43.6631016 9.72222222 41.5775401 9.72222222 41.5775401 0.194444444 43.342246 0.194444444 47.9144385 5.97222222 47.9144385 0.194444444"></polygon>
                </g>
                <path d="M55.0768071,99 C54.1432865,99 53.209766,98.94614 52.2762455,98.8653501 C44.8080813,98.1113106 38.0867335,94.448833 33.3391149,88.6050269 C28.5914962,82.7342908 26.377719,75.3554758 27.1512074,67.8150808 C27.6579757,62.8061041 29.4450007,58.0394973 32.3522503,54 L33.3657869,54.7540395 C30.5918973,58.6050269 28.8582164,63.1831239 28.4047921,67.9497307 C27.6846477,75.1400359 29.7917369,82.1956912 34.3259794,87.7971275 C38.860222,93.3985637 45.2881776,96.8725314 52.4096056,97.5996409 C58.7042011,98.2459605 65.0521407,96.6032316 70.2798556,92.967684 L71,94.0179533 C66.2790534,97.2764811 60.7312742,99 55.0768071,99 Z" id="Shape" fill="#FFFFFF"></path>
                <path d="M77.204567,89 L76.2464105,88.1629161 C79.8394971,83.9234912 82.04858,78.7389715 82.5808891,73.1494113 C84.0447392,58.2439173 73.3187104,44.9045803 58.6269785,43.4194315 C51.4141899,42.6903584 44.361094,44.8775776 38.7984637,49.5760486 L38,48.6039511 C43.8287849,43.6624558 51.2012663,41.3672258 58.7600558,42.1503043 C74.1437895,43.7164613 85.4021275,57.6768605 83.858431,73.2844248 C83.2462755,79.1440121 80.9573463,84.5715561 77.204567,89 Z" id="Shape" fill="#FFFFFF"></path>
                <polygon id="Shape" fill="url(#linearGradient-2)" points="89 98 60.6912638 81.6222101 57 0 69.0780322 76.687534"></polygon>
                <polygon id="Shape" fill="url(#linearGradient-3)" points="111 117 72.8524788 75.6274632 67 31 79.7956469 72.3725368"></polygon>
                <polygon id="Shape" fill="url(#linearGradient-4)" points="23 98 51.3056027 81.6222101 55 0 42.9117148 76.687534"></polygon>
                <polygon id="Shape" fill="url(#linearGradient-5)" points="0 117 38.1741233 75.6274632 44 31 31.2309553 72.3725368"></polygon>
            </g>
        </g>
    </g>
</svg>