<?xml version="1.0" encoding="UTF-8"?>
<svg width="128px" height="19px" viewBox="0 0 128 19" version="1.1" xmlns="http://www.w3.org/2000/svg" xmlns:xlink="http://www.w3.org/1999/xlink">
    <!-- Generator: Sketch 53.2 (72643) - https://sketchapp.com -->
    <title>Group 2</title>
    <desc>Created with Sketch.</desc>
    <g id="Home" stroke="none" stroke-width="1" fill="none" fill-rule="evenodd">
        <g id="login" transform="translate(-656.000000, -973.000000)" fill="#FFFFFF">
            <g id="Group-2" transform="translate(656.000000, 973.000000)">
                <g id="imagotipo-ho0rizontal-bringin-knowledge-to-life" transform="translate(57.000000, 0.000000)" fill-rule="nonzero">
                    <path d="M20.9039301,7 L18,12 L19.1921397,12 L19.7882096,10.8988095 L23.0436681,10.8988095 L23.6550218,12 L25,12 L22.0655022,7 L20.9039301,7 Z M21.0204082,8 L22,10 L20,10 L21.0204082,8 Z" id="Shape"></path>
                    <path d="M27,12 L27,7 L31.7084469,7 C32.5258856,7 32.9509537,7.32738095 32.9509537,7.9672619 L32.9509537,8.57738095 C32.9509537,9.06845238 32.640327,9.35119048 32.0027248,9.42559524 C32.6566757,9.5 33,9.82738095 33,10.3779762 L33,11.0178571 C33,11.672619 32.4604905,12 31.3814714,12 L27,12 Z M30.4953271,8 L28,8 L28,9 L30.4953271,9 C30.8317757,9 31,8.9 31,8.7 L31,8.3 C30.9859813,8.1 30.817757,8 30.4953271,8 L30.4953271,8 Z M31.3116279,10 L28,10 L28,11 L31.3116279,11 C31.5534884,11 31.7209302,10.9764706 31.8139535,10.9411765 C31.944186,10.8941176 32,10.7882353 32,10.6470588 L32,10.3529412 C32,10.2 31.944186,10.1058824 31.8139535,10.0588235 C31.7209302,10.0235294 31.5534884,10 31.3116279,10 L31.3116279,10 Z" id="Shape"></path>
                    <path d="M35,12 L35,7 L39.3308271,7 C40.0827068,7 40.4736842,7.32738095 40.4736842,7.9672619 L40.4736842,9.14285714 C40.4736842,9.7827381 40.0977444,10.110119 39.3308271,10.110119 L38.6691729,10.110119 L41,12 L39.3157895,12 L37.2857143,10.110119 L36.1729323,10.110119 L36.1729323,12 L35,12 Z M38.5023697,8 L36,8 L36,9 L38.5023697,9 C38.6729858,9 38.8009479,8.9893617 38.8578199,8.95744681 C38.957346,8.91489362 39,8.82978723 39,8.71276596 L39,8.27659574 C39,8.15957447 38.957346,8.07446809 38.8578199,8.03191489 C38.7867299,8.0106383 38.6729858,8 38.5023697,8 L38.5023697,8 Z" id="Shape"></path>
                    <path d="M44.9039301,7 L42,12 L43.1921397,12 L43.7882096,10.8988095 L47.0436681,10.8988095 L47.6550218,12 L49,12 L46.0502183,7 L44.9039301,7 Z M45.0204082,8 L46,10 L44,10 L45.0204082,8 Z" id="Shape"></path>
                    <polygon id="Shape" points="55.01373 7 53.3798627 8.69642857 51.6659039 7 50 7 52.5949657 9.44047619 50.0480549 12 51.5217391 12 53.3318078 10.0654762 55.3020595 12 57 12 54.1167048 9.30654762 56.4553776 7"></polygon>
                    <path d="M59.9039301,7 L57,12 L58.1921397,12 L58.7882096,10.8988095 L62.0436681,10.8988095 L62.6550218,12 L64,12 L61.0655022,7 L59.9039301,7 Z M60.0204082,8 L61,10 L59,10 L60.0204082,8 Z" id="Shape"></path>
                    <path d="M69.8351064,7.86826347 L66.3085106,7.86826347 L66.3085106,8.94610778 L69.6595745,8.94610778 C70.1702128,8.94610778 70.5212766,9.02095808 70.712766,9.18562874 C70.9042553,9.3502994 71,9.66467066 71,10.1287425 L71,10.8173653 C71,11.2814371 70.9042553,11.5958084 70.712766,11.760479 C70.5212766,11.9251497 70.1702128,12 69.6595745,12 L66.3404255,12 C65.8297872,12 65.4787234,11.9251497 65.287234,11.760479 C65.0957447,11.5958084 65,11.2814371 65,10.8173653 L65,10.4730539 L66.1010638,10.4730539 L66.1010638,11.0718563 L69.8989362,11.0718563 L69.8989362,9.91916168 L66.5478723,9.91916168 C66.037234,9.91916168 65.6861702,9.84431138 65.4946809,9.67964072 C65.3031915,9.51497006 65.2074468,9.2005988 65.2074468,8.73652695 L65.2074468,8.18263473 C65.2074468,7.71856287 65.3031915,7.40419162 65.4946809,7.23952096 C65.6861702,7.0748503 66.037234,7 66.5478723,7 L69.5957447,7 C70.0904255,7 70.4255319,7.0748503 70.6329787,7.23952096 C70.8244681,7.38922156 70.9361702,7.68862275 70.9361702,8.10778443 L70.9361702,8.45209581 L69.8351064,8.45209581 L69.8351064,7.86826347 L69.8351064,7.86826347 Z" id="Shape"></path>
                    <path d="M10.6241379,7.04699739 C11.3114943,7.8772846 12.208046,9.27154047 12.208046,11.229765 C12.208046,14.5665796 9.62298851,17.2610966 6.45517241,17.2610966 C3.27241379,17.2610966 0.777011494,14.5039164 0.732183908,11.229765 C0.717241379,9.41253264 1.37471264,8.22193211 2.37586207,7 C0.836781609,8.25326371 0,9.9921671 0,12.1853786 C0,15.9451697 2.9137931,19 6.5,19 C10.0862069,19 13,15.9451697 13,12.1853786 C13,9.75718016 11.7448276,7.95561358 10.6241379,7.04699739 Z" id="Shape"></path>
                    <polygon id="Shape" points="4 4.70884521 4 14.2911548 5 16 5 3"></polygon>
                    <polygon id="Shape" points="8 3 8.0212766 16 9 14.2560976 9 4.69634146"></polygon>
                    <polygon id="Shape" points="6.0212766 12 7 12 6.9787234 0.998657718 6.4893617 0 6 0.998657718"></polygon>
                </g>
                <text id="Powered-by" font-family="Helvetica" font-size="9" font-weight="normal">
                    <tspan x="0" y="11">Powered by</tspan>
                </text>
            </g>
        </g>
    </g>
</svg>