<?xml version="1.0" encoding="utf-8"?>
<!-- Generator: Adobe Illustrator 19.1.0, SVG Export Plug-In . SVG Version: 6.00 Build 0)  -->
<svg version="1.1" id="bordes" xmlns="http://www.w3.org/2000/svg" xmlns:xlink="http://www.w3.org/1999/xlink" x="0px" y="0px"
	 viewBox="0 0 2200 2200" style="enable-background:new 0 0 2200 2200;" xml:space="preserve">
<style type="text/css">
	.st0{fill:#E6E8EB;stroke:#C9C9C9;stroke-width:4;stroke-miterlimit:10;}
	.st1{fill:none;stroke:#C9C9C9;stroke-width:4;stroke-linecap:round;stroke-linejoin:round;stroke-miterlimit:10;}
</style>
<path id="borde-jalisco" class="st0" d="M1697.1,1396.2c4-2,14.3,2.1,17.9,1.8c6.7-0.5,14.3-2.7,20.2-4.7c6.3-2.2,9.5-5,15.5-6.5
	c7.6-1.9-0.8-4.7,9.7-1.6c0.5,0.2-1.5,4.5,0,5.5c6.5,4.4,21.9,4.7,32.2-0.4c2.4-1.2,5.6-5.1,8.9-5.7c3-0.6,6.4,2.7,10.6,1.5
	c5.3-1.4,4.6-3,7.7-4.4c-1.7-1.2-1.9-2.7-0.7-4.4c3.1-0.2,6.2,0.3,9.2,1.4c0-4.7-5.5-3.8-5.5-6.4c3.5-2.9,19.7,1.3,24.7,0
	c5-1.2,6.5-1.8,11.9-5.5c6.9-4.6,12.9-14.8,8.3-17.4c2.5-3.5,2.9-2,1.8-1.8c0.4-1.8,3.3-4.9,3.9-7.1c0.1-0.5,2.4-3.2,5.3-3.9
	c-0.6-2.3,4.3-5.6,5.5-10.1c1.2-4.7-0.3-6.3,1.9-11.3c2.3-5.3,7.8-9.2,10.6-13.7c1.7-2.9,4.1-14,4.5-14.6c3.9-4.5,6.6,0.7,9.7-1.6
	c-0.7,0.1-1-0.2-0.9-0.9c1.4,1.2,2.3,0.8,2.7-0.9c2.4-0.3,3,1.5,1.8,5.5c5.8,0,15.3-33.1,17.4-39.4c-6,3-2.9-10.6-2.7-12.8
	c-1.3,1.3-6.5-4.6-6.4-1.8c-2.2-2.2,0.9-11.7,0.9-14.7c-4.7-1.3-2.4,4.3-5.5,3.7c0.9,0.2-4.5-2.6-2.4-2.6c-5.3-0.1-4.9,0.8-8.3-0.6
	c-15-6.1-3.8-9.9-6.8-22.2c-2.7-10.9-5.6-4.9-12.7-6.7c-0.6-2.4,3.2-11.6,0.9-12.8c-3.3-1.8-7.3,7.2-13.7,1.8c0-1.6,2.8-3.7,1.1-5.3
	c0,0-5.6,0.7-5.6,0.8c-0.7-6.7,3.5-9.2,0.9-15.6c-0.1-0.1-4.9,3.4-4.6,2.7c0.9-6.9-4.4-0.8-4.6-5.5c-2.2,0.7-2.5,1-0.9,0.9
	c-2.1,0,10.1-24.6,7.3-26.6c0,0,0.6-3.3,0.9-3.7c1.2,2.4,33.8-11.3,28.4-24.7c7.2,1.6,19.3-29.2,27.5-21.1c2.6-6,8.7-7.2,11-2.7
	c4-5.6-0.5-3,1.3-10.5c0.6-2.4,7.9-13.8,7.9-12.4c-0.1,0.1,5.2-13.6,6.4-16.5c2.5-6.1,6.9-20.4,4.6-27.5c2.7,4.8,11.9-9.8,12.8-11.4
	c4.2-7.7-3.2-6.8,7.5-11.2c5.2-2.2,11.1,0.7,15.8-3c5.5-4.2,2.4-13.4-1.3-9.2c0-3.4-0.3-6.7-0.9-10.1c5.2,1.4,12.1,1.5,11-6.4
	c-0.8,1.2-1.7,1.2-2.7,0c2-3.5,6.6-3,5.5-8.2c7.9,1.1,7,7.2,11.9,0.2c1.2-1.8,1.7-13,2.1-15.2c1.6-8.2-0.8-26.2,11.6-26.2
	c-2.4-2.5-4.8-4.9-7.3-7.3c4.3-6.3,9.4-4.9,15.6-7.3c2.7-1.1,1.4-3.9,6.4-4.6c5.1-0.7,8.5,2.9,11.4,1.8c1.3-1.7,2.4-3.5,3.2-5.5
	c3.6-4.1,7.2-4.1,11,0c1.9-0.5,4.1-0.5,5.9-1.1c11.9-3.7,8.3-15,7.7-22c-0.8-9.2,0.8-14.4-4.9-22.2c-5.2-7.1-17.6-8.7-5.3-17
	c4.6-3.1,9.7-1.1,14.4-2.2c3.6-0.9,6.8-3.5,10.5-4.3c6.5-1.5,15.8-2.8,22.1-1.6c-9.3-3.7-0.4-18.5-9.2-12.8
	c-1.8-9.7,0.6-9.9-6.8-19.5c-5-6.5-11.2-23.4-18.9-18.1c0.9-3.3,8.6-17,8.2-17.4c10.2-0.3,5.9-13.7,5.9-15.5
	c0.1-5.8,4.5-11.8,8.8-19.3c7.5,6.9,7.9-15.6,0.9-10.1v-0.9c0.6,0-1.2-0.8-1.8,0c0.4-1.2,0.7-2.4,0.9-3.7c0,1.1,4.5-13.3,5.2-15.1
	c1-2.4,8.3-11.3,7.6-14.2c-1.9,0.3-6.8-5.5-8.2-8.2c-0.4,0.1,8.6-0.9,6.4,2.7c4.3-3,4.4-11.6,7.3-15.6c-13.7,0-13.3-11.4-14.7-23.8
	c19.3,0,39.9,0.3,32.1-21.1c-2.9,0.9-3.8,2.7-2.8,5.5c-6.9-0.4-4.5-5.5-7.8-8.7c-2.3-2.2-9.5-7-10.7-9.7c-3.5-8.2-2.6-30.6-2.6-39.4
	c-1.4,0.8-11.2,3.1-11.5,3c-3.3-0.6-11.7-9.4-12.3-9.4c-2.1,8.4-9.3,12.1-15.3,11.9c-4.5-0.1,1.1-14.9-4.9-11.9
	c3.7-8.3-23.1-23.3-23.8-22c-1.8-2.2-3-4.6-3.7-7.3c-3.2-0.9-6-2.6-8.4-5c1.3-3.8-0.2-6.3-4.3-7.6c-2.7-2.9-5.7-3.3-8.8-1.3
	c-2.9,2.2-6,2.8-9.4,1.9c-0.7-1.5-0.9-3-0.5-4.6c-1.9-1-3-2.5-3.4-4.6c-3.4,1.3-6.7,1.3-10.1,0c0.7-1.1,1-2.3,0.9-3.7
	c-6.1,7.5-5.3,5.3-15.6,3.7c-2.5-0.4-8.5-3.2-10.9-2.3c-1.7,0.6-5.8,4.1-1,4.1c-3.2,0.4-0.6,6.6-1.5,9.3c-3.3,10.1-7.4,7.5-15,14.5
	c-2.5-4.4,0.7-6.8-4.8-7.8c-3-0.5-4.1-0.6-6.2-3.2c2.2,6.6,5.3,6.7,8,13.5c2.3,5.7,3.9,14.2,5.7,20.4c2.7-2.3,2.7-3.3,0-2.7
	c16-16.8,41.1,15.3,11.9,15.8c-12.7,0.2-78.7,15.4-78.7,30.9c-3-1.1-6-1.7-9.2-1.8c0,13.3-2.2,16.3-7.7,23.4
	c-2.1,2.7-4.6,9.5-7.3,11.6c-3.3,2.6-7.3,0.3-9.4,2.6c-1.2,0.8-2.2,1.7-3.1,2.8c5.5,4.3,4.9,7.3-1.8,9.2c-0.5,1.1-3.1,3-3.7,3.7
	c-0.7,0.8-7.3,9.2-7.3,9.2c-6.2,12.5-12.8,19.6-25.7,15.6c-3.1,12.3-7.9,11.9-21.1,6.4c3.2,12.8-8.7,20.6-17.9,21.6
	c-3.5,0.4-17.7,1.2-14.2-5.1c-4.3-0.2-8.6-0.8-12.8-1.8c1.6,2.3-0.4,8.5,4.6,7.3c-1.6,3.9-4.9,11.4-8,13.6c-2.9,2-6.1-2.7-6.6,2.9
	c-8.3-1.8-15-9.7-21.5-13c-3.8-1.9-22.2-5.6-17.9-9.9c-7.6-1.7-14.3-4.7-21.1-7.4c-6.2-2.4,0.7,1.2-7.3,0c9.2-3.1,1.8-13.6-7.3-8.2
	c2.1-8.8-25.6-16.3-30.6-19.2c-2.9-1.7-3.1-4.5-8.1-6.3c-6.3-2.3-13.3-0.1-19.6-1.5c-1.5-0.3-0.8-4.9-2.8-5.8
	c-1.6-0.7-9.1-1.3-11.5-1.8c-1.7-0.3-3.4-3.3-5.3-3.8c-1.7-0.4-3.3,1.9-4.3,1.8c-2.7-0.4-7.3-1.3-11.5-0.5c-1.5,0.3-9.1,4.8-9.4,5
	c-1.8,1.6-4.8,4.9-6.9,6.4c-0.6,0.5,1.4,5.2,0.9,5.5c-3,1.7-6.6-1.5-9.8,0c-2.8,1.3-1.3,5.3-5.5,7.3c-2.2,1.1-7.5-2-9.4-0.7
	c-2.9,2.1-2.6,6.5-4.7,9c-1.8,2.2-5.4,6.9-6.2,7.6c-2.8,2.8-14.3,10.8-18.4,7.9c-0.4,7,16.2,4.5,15.6,9.2c-0.2,1.5-4.5,3.5-5.5,4.6
	c8.4,3.3,5.1,23.6,14.1,28.5c1.2,0.7,13.5,2.3,10.4,0.4c1.3,0.8,5.9,5.5,5.9,5.5c-0.8-0.4,1.6,4.3,2.3,4.6c0.9,0.5,4.6,0.1,4.8,0.3
	c3,2,4.1-1.7,7,2.5c2.8,4.1-2.7,5.4-1.2,9.1c3.1,7.5,0.4,1.3,6.4,4.7c4.5,2.5,19,1.8,21.4,3.8c4.3,3.5,1.2,3.3,2.3,5.2
	c-1.6,1.2-2.1,3-1.4,5.2c2.5,2.4,4.7,5.1,6.6,7.9c-6.1,2.1-3.7,12.3-7.3,12.8c1.3-1.1,1.3-2,0-2.7c-0.3,1-0.9,1.6-1.8,1.8
	c-0.4,0.4-6.9,11.8,3.7,7.3c-0.5,5.1-9.1,9.3-9,10.3c1.4-0.6,1.9,0.2,1.7,2.6c-3.6-1.1-3.2,1.9,0,1.8c-0.6,1.2-1.2,1.2-1.8,0
	c0.2,2.6,1.6,9.5-1.8,7.3c1.7,1.8,2.6,3.9,2.7,6.4c-2,0-2.5-2.1-3.7,0.9c4.8-0.7,1.7,10.8,11,8.2c-1.5,3.3-0.5,8.4-2.4,11.7
	c-3.1,5.3-13.9,14.2-19.6,17.6c-0.6-1.8-8.9-5.3-10.1-7.3c-0.9-1.6-7.2-23.4-13.7-16.7c-1,1.1-0.3,7.2-1.1,9.1
	c1.4,1.3,2,2.7,1.9,4.3c0.1,2.3-1.6,3.5-5.2,3.7c-2,2.6-6.9,3-9,5.7c-1.5,2,1.1,4.1-0.7,6c-9.4,9.9-17.3-7.5-20.9,11.6
	c-5.2-17.9-14,0.6-8.2,6.4c-7.3-1.6-8.5-6.2-13.3-1.1c-3.2,3.4-6.1,5.7-1.4,10.2c-4.7,0.7-11.9,6.5-8.2,11.9
	c-0.7,0.1-1.1-0.2-0.9-0.9c-1.2,5.2-2.8-1.2-4.6,0.6c-2,2.1,2.3,12.6-4.6,9.5c-0.1-0.7,0.2-1,0.9-0.9c-1.7-0.9-7.1,0.5-5.5,2.8
	c-7.5-0.1-3.5-1-7.3,4.1c0.2-0.3-0.3,3.8-1.9,1.4c-0.4,3,0.5,7.3-0.9,10.1c-4-2.1-25.6-4.8-18.3-13.7c-0.1,0-0.5-1.8,0.9-1.8
	c-1.2-0.9-2.4-0.9-3.7,0c0.8-0.1,1.1,0.2,0.9,0.9c-4.2,0-8.8-4.7-10.1-5.5c-1.3,0.8-1.3,1.1,0,0.9c-3.3,0.9-4.3-0.7-4.6-0.9
	c-4.9-4.3-4.2-11.2-15.6-7.3c-0.1,0-2.3,5.6-6.1,6.4c-1.8,0.4-7.2-3.8-11.3-2.8c-0.5-2.4,2.6-7-0.9-8.2c-2.5,1.9-5.3,3.5-8.2,4.6
	c2.8,5.4-9.1,23.2-1.8,23.8c-2.1,5-6.9,5.3-7.7,11.2c-0.6,4.1,3,8.2,3.5,12.1c0.7,5.4,2.6,7.6-0.4,13.1c-2.1,3.8-10.4,2-11,7.6
	c0.7,0,1-0.3,0.9-0.9c1.3,2.3,2.2,4.8,2.8,7.3c3.1-1.7,3.4,2.7,9.2,2.7c-1.6,4.5-1.8,5-1.8,7.3c2.7,0,4.5-1.2,5.5-3.7
	c1.5,1.3,1.5,2.8,4.6,1.8c-2.7,2.7-3,3.9-0.9,3.7c-5,0.6-9.6,12.4-15.1,14.6c-8.7,3.4-10.2-3.1-17.9-0.9c-1,0.3,3.6,5.2,0.1,5.7
	c-3.9,0.6-2.5-1.1-6.5-2.1c-2.9-0.7-11-5.1-12.8-7.3c-0.4,3-8.7-0.3-11.9,1.8c0.2-1.3-0.1-1.3-0.9,0c0.5-2,0.2-6.6,0.2-6.6
	c-0.5-2.9-6-1.7-6.2-1.8c-9.5-3.6-0.4-1.8-10,0.1c-4,0.8-10.9,4.7-17.9,0.9c0.7,0.1,1-0.2,0.9-0.9c-5.1,2.7-2.1,5.1-0.9,8.2
	c-4.1,0.1-5.6,8.7-9.6,9.2c-0.2,0-10.8-7.6-10.5-7.3c1.6-3.2-3,6.1-2.1,5.5c-2.2,1.3-9.3-1.6-12.4-0.3c-8,3.3-0.2,5.6-9.7,5.7
	c-5.1,0-17.5-13.4-19.8-11.8c-1.5-5.2-6.1-18-8.2-17.4c-0.8,0.9,1.2-3.4,0.9-1.8c-7.7-1.3-7.9-8.4-10.1-12.8
	c0.5,1.1-3.7-11.1-3.7-11c-1.7,2.5-22.1,4.9-26,5.9c-16.1,4.5-8.3,2-15.2-5.9c-4.6,3.5-12.6,0.7-9.2,6.4c-1.8,1.3-15.2,4.8-11.9,9.2
	c-3-3.2-8.2-1.5-8.2,0c-1.4-2.2-4.5-5-7.3-5.5c0.7,0.1,1-0.2,0.9-0.9c-7.2,2.5-13.7-18.9-15-22.4c-2.4-6.6-2-7.1-7.7-11.7
	c-1.2-1-14.2-9.8-13-10.8c-1.9-1.4-4-2-6.4-1.8c0.9-4.9,3.4-6,7.4-3.4c1.7-0.1,3.3-0.2,5-0.3c4.1-5.2,1.4-8.3,1.9-14
	c0.5-5.2,3.1-14.7,3.1-18.1c-7.5-1.7-12.7,4.5-15.6-4.6c-4.3,2.6-26.7,6.2-23.8,12.8c-10.1-2-1.8-26.8,3.4-29
	c4.7-2,11.9,1.9,15.8,0.7c2.4-0.7,0.8-3.2,3-4.5c4.9-2.8,4.8-3.4,10.7-4.6c-0.9-1,0.2-2.5,0.9-3.7c1.4,5.5,3.6-4.8,5.5,2.7
	c4.6-1.5,6.8-2.8,9.2-7.3c1.5,3.4,9,5.9,11.9,6.4c-0.7,0-1,0.3-0.9,0.9c8.6-2.1,9.7,13.6,12.8-6.4c7.6,3.7,22.3-1.1,28.7-1
	c8.4,0.1-12.4-45.1-13.1-47.5c-1.9,0.7-11.6,4.3-11,7.3c-2.6-6.3-6.6-2-7.3-3.7c-3,3-4.5,11.2-6.4,17.4c1.2-3.1-1.2,6.7,0,5.5
	c-6.1-0.9-7-1.8-11.2-7.3c0.2,0.3-10.7-13.5-4.4-8.2c-4.9-7.3-6.1-4.9-13-8.4c-9.8-5,4.5,8.1-5.8-0.1c-5.5-4.4-4-8.4-0.5-13.5
	c-16.5-0.3-19.9,2-16.9-10.1c0.7-2.8,1.2-5.8,3.1-8.8c1.4-2.3,7.7-2.2,7.5-4.9c0,0.1-7-8.7-6.4-7.3c-1.3-3.4-6.8-18,1.8-19.2
	c0.3,3.7,6.1-1.5,11.9,1.8c-4.8-4.6,3.4-10,7.4-10.4c5.2-0.5,7.4,3.3,10.9,5.8c0,6.4,8,2.9,13.7,2.8c-4.2-3.7-0.3-13.9,2.7-15.6
	c1.8-1,5.8,1.6,6.4,1.8c5.6,1.9,6.3,6.8,11,1.1c4.9-5.9,0-13.3,0-21.3c-0.1-12.1,4-14,9.7-23.8c3.9-6.7,7.8-15.6,10.3-23.6
	c2.5-7.7,1.1-25.2-7.2-32.3c-2.1,9.5-27.7-12.2-20.6-16.5c8.7-5.2,23.1,9.2,19.7-7.3c6.2,1.5,10.6-7.9,14.7-7.3
	c5,0.7,7.6,15.2,15.6,10.1c-0.3-0.3-2.2-8-1.8-8.3c7-4.9-0.1-1.8,9.2-1.8c-3.4-5.2,13.3-26.3,16.5-30.2c0,0,6.6-8.4,4.6-8.2
	c3.5-0.4,7.5,5.7,9.2,5.5c4.8-0.8,1.4-4.7,6.3-6.5c2.6-1,17.8-2.3,19.1-3.5c2.9-2.9,1.3-11.2,3.3-14.1c2.3-3.5,11.5-8,14.8-11.2
	c4.6-4.4,9.3-11.8,16.2-14.2c0.7,6.1,17,15.1,17,11.4c-0.6-1.5-1.4-2.9-2.4-4.1c7.4-1.4,16.4,9.6,23.4,4.9c6.5-4.4-1.1-7.3,3.2-12.3
	c-5.4,0.5-5.2-3.7-1.8-5.5c2.6-1.4,11.7,3.4,15.6,2.7c1.9-0.3,3.3-4,6.2-4.4c4.3-0.7,6.3,0.9,9.8,0.1c10.3-2.5,13.7-9.8,9.6-18.5
	c3.8,2.2,4.6-6.8,3.7-9c-2.5-6.4-4.8-3.9-10.5-5.8c-5.4-1.8-13.6,0.9-12.5-7.3c0.6-4.4,1.4-1.8,3-4.3c-4.7,7.4,18.4-9.5,7.3-5.4
	c3.3-1.2,15.9-3.9,15.4-3.9c2.2-2.7,6.3-4.4,7.3-2.7c2.8-2.8,5.4-8.2,2.8-10.1c8.1,1.4-5.9-6.5-6.5-7c-5.7-4.8-9.7,6.7-3.5-4.9
	c-1.2,0.5-2.4,0.5-3.7,0c5.8-3.7,1.1-16.1,3.9-20.7c2.9-4.7,10.3-4,12.6-5.9c-1,1,4.9,0.9,1.8-4.6c2.4,1.8,9.8-2.4,10.1-4.6
	c-7.4-0.4-1.2-10.3-0.9-13.7c-4.6,0.3-5.2-5-10.1-4.6c-1.2,0.9-5.5-12.2-6.3-13.4c-5.3-8.1-12.1-6.5-20.3-7.7c-6.1,0.6-18-3-25.8-1
	c-3.2,0.9-18.6,13.3-19.8,7.4c-1.6-8,6.4-23.6,11-27.5c9.8-8.3,18.7-8.8,12.6-23.8c1.7-0.1,2.7-1,2.8-2.7c-8.3-1.5-8.6-7.1-14.7,1.8
	c-1.3-14.3-7.6-18.8-16.5-7.3c-2.6-6.6-21.9-7.3-26.6-11c0.9,5-5,12.1-10.1,12.8c-2.3,0.3-2.9-6.6-3.7-8.2
	c-7.3,8.7-11.4,11.5-18.7,18.2c-3.1,2.8-8.2,0.6-7.2,9.9c1,9.9,4,5.3,11.3,9.4c-1.7,0.6-9.8,9.1-10.1,11c0,0.1,6,2.9,6.1,5.4
	c0.2,4.6-1.4,8.5-2.5,13c3.6-3.7,22.8-23.8,27.4-10.6c0.9,2.4-4.6,20-7.3,21.6c13.2-2.5,5.3,10.6-2.3,11.4
	c-12.1,1.4-17.1-7.2-29.1,4c-4.6,4.3-1.9,6.5-5.8,8.8c-1.4,0.8-5.4-2.4-7.3-1.2c-1.4,0.8-3,3.9-4.2,4.5c-6.6,3.7,0.5,9.1-10.8,8.2
	c1.5,4.3,4.6,4.1,7.3,7.3c-5-1-7.3,22.9-6.4,23.8c-1,0.3-1.2,1.3-1.8-0.9c-0.9,3.4-0.3,2.4-1.8,2.7c3.2,5.9-12.6,11.6-11.9,11.6
	c-2.3-0.1-14.5-6.1-11-0.7c-1.5,0-6.7,0-5.5,0c-12.7-0.5-8.2-2.4-9.2-11.9c-1.9,1-12,5-12.9,4.8c-5.9-1.3-1.5-7.1-8.2-8.2
	c-11.7-2-9.2,8.6-11.9,16.2c-3.1,0-1.8-4.9-5.9-2.9c-0.5,0.2-5.9,5.6-6.3,5.7c-4.6,0.8-14.7-1.2-19-1.8c-3.3-0.5-7.4-0.6-11.1-1.8
	c-1.9-0.6-5.4-0.8-7-2.1c-5.6-4.6,2.7-0.9,1.7-6.1c-1.9-1.6-4-2.8-6.4-3.7c1.7-6.2,18.3-17.7,18.3-23.8c-6-1.2,19.4-49.5,30.2-53.1
	c-6.6-4.2-15.6-4.9-20.4-12.1c-4.1-6-3.2-7.4-2.7-14.1c0.1-0.7,0.8-11.1,0.2-10.4c2.8-3.3,11.1,3.6,14.2,2.3
	c8.7-3.6-0.4-4.1,1.6-9.2c3.3-8.4,8-15,8-27.9c2.5,1.9,15-5.4,15.8-8.3c1.3-4.9-3.2-4.5-4.4-10.3c-0.7-3.4-1.2-12.2,0.5-12.5
	c-5.3-3.8-2.1-15.2-11.9-20.1c10.6-1.9,1.2-10.4,0.9-11c-1.2-2.8-4.2-10.4-5.5-13c-6.3-13.2-14.1,0.1-26.3-0.4
	c-1.4-0.1-8.9-3.2-11-4.1c-3.4-1.4-10.1-2.7-14.6-4.4c-11.6-4.5-15.7-2.6-24.1,7.3c2-9.1-7.8,4.5-8.2,5.5c-1.8,3.6-1.9,9.6-2.7,13.4
	c-1.5,7.3-4.8,21.4-9.2,31.9c-6.7,15.9-2.5,39.1-13.7,50.3c-7.7,7.7-11.3,10-7.6,23.8c3.5,13.2,2.5,14.1-0.8,26.3
	c-0.6,2.1-0.5,5.2-0.7,10c-0.6,14.9-6.5,28.3-11.2,42.2c-10.9-8.5-7.1-20.4-11.7-31.4c-2.7-6.5-12.8-14-14.4-20.2
	c-0.3-1.1,3.1-9.7,3.2-9.7c-0.3,0.9,0,1.2,0.9,0.9c-0.7-3.3-2.1-8.5-2.7-11c-0.1,0.7,0.2,1,0.9,0.9c0-6.7-5.6-10.5-4.1-18.9
	c1-5.6,5.4-15.6,13.2-15c-0.7-9.4,0.3-5.2,2.7-11.8c1-2.9,6.8-3.4,1.9-7.4c8.6-3.1,6,1.6,9.4-7.3c0.6-1.6-5.5-2.8-5.7-2.8
	c-0.3-1.8,0.9-2.4,3.7-1.8c-1.7-4.4-9.7-4.5-10.5-9.3c0.1,0.8,8,0.1,8.3-3.4c0.4-4.2-7.3-12.6-2.4-16.6c7.9,11.4,9.5-14.6,8.2-19.2
	c-10.1-10.1,12.3-18.9,2.7-28.4c1-0.3,1.6,0,1.8,0.9c0.6-1.3,1.1-2.3,0-3.7c0.8-0.2,1.1,0.1,0.9,0.9c0.3-4,11.4-7.5,13.3-8.6
	c6.8-4,14.3-6.1,21.3-9.8c3.9-2.1,9.4-9.1,13.1-10c-5-2.3-1.8-20.8-1.3-23.6c0.8-4.8,4-9.1,5.2-14.1c0.4-1.8-1.3-11.2-0.2-12.7
	c-6.6,2.1-7.5-5.1-11.9-6.5c-0.2-0.1-13.6,0.9-13.8,1c0.7,0.1,1-0.2,0.9-0.9c-3.3,0.1-3.6,2-6,1.8c-1.9-0.1-2-3-3.7-3.4
	c-3.6-0.9-4.6,3.8-6.9,3.4c-4.1-0.7-9.2-3.1-14.3-3.7c-5.2-0.6-4.5-0.3-9.3-0.4c-3.5-0.1-4,4.3-8.5,1.8c-0.9-0.5,0.5-6.4-1.8-7.8
	c-4.9-2.9-28.2-3.3-32.1,0c-0.1,0.7,0.2,1,0.9,0.9c-0.7-0.1-1,0.2-0.9,0.9c-1.6,0-1.7-1.6-0.9-2.7c-3.1,0.2-5.5,2.7-8.2,2.7
	c3.2-5.7-9.1-3.2-12.8-1.9c-4.9,1.8-7.4,4.2-11.4,8.1c-2,1.9-5-0.1-6.7,2c-2.9,3.4,2.8,3.6,2.5,7c-0.3,2.8-8.4,1.8-8.3,3.9
	c0.1,2.3,6,3.9,1.8,7.6c0.8,1.1-9.2-9-6.8-3.2c-0.2-0.4,20,11.8,9.5,9.7c4.2,2,10.2,6.8,11,0c15.3,0,0.4,20.1,0.7,26.8
	c0.1,3.4,1.8,11.3,3.9,13.9c4.6,5.8,16.5,2.8,19.2,9.6c-2.8-0.4-8.2,10-9.2,11c0.7,0.2,8.1,1.8,4.6,3.7c2.5,0.5,9.2,5.7,9.2,7.3
	c-3.3,0.9-12.9-1.9-14.8,1.5c-2,3.6,2.3,7.9,7.5,5.8c-0.6,1.2-1.2,2.5-1.8,3.7c1.6-0.9,5.5,1.8,4.6,3.7c1.4,0.4,8-1.7,9.4,0.6
	c1.2,2-0.3,9.3,6.2,3c-2,3.5,4.9,4.6,3.7,4.6c1.3,0.9,2.5,0.9,3.7,0c-3.2,3.2-0.2,3.5,0.9,6.4c-1.2-0.3-2.4-0.9-3.7-0.9
	c0.8,3.2,2.7,5.7,5.5,7.3c-1.2,1.7-2.7,2-4.6,0.9c-0.3,1.5,0.6,2.1,2.7,1.8c-2.9,1-9,6-11.9,9.9c-6.2,8.1,2,8.5-10,8.5
	c4.3,5.1-9.3,11.7-11,14.7c0.9-1.5-3.3,4.6-3.7,5.3c-0.5,0.8-1,6.6-1.8,8.6c-5.1,11.9-4.6,6.3-11.9,6.3c-2.5-3.2-5.5-3.9-9.2-2.2
	c-1.2,1-2.4,2.1-3.7,3.1c-0.6,0.1-1.3,1.9-3.7,2.8c2.3-2.3-8.1,2.4-9.1,2.3c-10.1-1.3-3.9-4.1-1.9-9.1c-0.4,1.1,5.9-3.1,6.4-4
	c-0.5,0.9-1.3-6.2-1-7.4c0.5-2.4,2.9-18.3,8.4-14.7c0.1-8.4,2.1-11.2,3.7-19.4c2.5-13-5.3-19.7-9.2-29.1c-1.6-3.9,2.1-9-7.3-9.2
	c-6.6-0.1-8.8,9.2-15.6,8.2c0-1.2,3.9,11.3,3.7,11c-4.5,1.1-18.9-5.2-18.3-11c-1.8,0.6-3.1,1.8-3.7,3.7
	c-7.8-8.7-26.1,15.6-28.4,12.8c1.6,2.8,6.1-0.3,7.4,2.9c-0.7,1.6-1.7,3.1-2.8,4.4c3.1-2.2,10.4-1.3,7.3,1.8c5.8-4.8-4.2,5.8-2.7,9.3
	c0.9,2.2,13.4,3,13.7,2.6c-1.1,2.4-2.1,7.3-4.6,7.3c0.9,0.6,0.1,3.1,1.3,7.1c2.2,7.4,9.1,17.7-2.8,14.5c-16-4.3-8.3-23.5-26-12.9
	c-11.3,6.8-11,16.2-12.8,27c-0.4,2.4,2.4,6.4,0.9,8.2c-4.8,5.9-18.4-2.8-21.1,0.7c2.1-2.8-0.2,14.9-0.4,11.1
	c0.2,4.8,4.6,3.3,2.2,9.3c10.1-2.5-3.8,17.4-3.2,16.5c-3.2,5-10.8,9.5-13,13.8c-1.7,3.4,0.9,5.4-0.3,9.5c-0.7,2.3-3.9,4.6-4.9,8.5
	c-0.2,0.8-3.1,1.7-3.3,3c-0.1,0.9,2.5,3.6,2.5,3.6c-0.3,1.1,0.3,6.3-0.4,8.9c-0.6,2.5-6.6,7.8-7.9,11c-3.2,8.2-5.9,20-7.6,28.8
	c-1.9,9.4,2.3,15.5,1.8,24.8c-0.4,7.6-3.2,12-2.9,19.4c0.2,5.1,2.3,5.8,1.8,12.3c-0.7,8.6-8,14.1,1.4,17c11.3,3.5,20.6-7.3,27.4-9.6
	c12.9-4.3,6.6-2.4,15.6,6c9.4,8.8,16.3,6.4,26.5,2.2c10.6-4.3,21.2-4.6,22.6,9.6c0.6,6.2-4.5,11.9-7,16.5
	c-2.4,4.5-8.2,12.6-7.2,19.5c1.5,10.6,7.9,10.5,14.7,11.4c-3.9,5.6-8.9,6.6-12.8,11c3.8-1,16.6,19.8,19.2,22
	c1.3,1.1,12.4,9.9,15.6,11c2.5,0.8,19.9-3.8,15.6,2.7c4.1-1.5,7.8-1.4,12.2-2.6c4.1-1.1,5.8-1.3,11.9-0.7c6.7,0.7,13.2,2.9,19.5,5.3
	c3.2,1.2,10.5,4.8,12.2,5.1c9.4,1.6,13.3-2.9,21-1.3c4.1,0.8,15.7,8.9,11.4,11.9c-5.3,3.8-8.2-2.3-6.6,6.4
	c1,5.2,10.8,10.6,12.8,13.3c0.8-2.1,1.4-4.2,1.8-6.4c0.4-0.2,5.5,13.6,5,15.6c-0.6,2.8-5.2,4.7-6.2,6.3
	c-4.5,7.2-16.1,13.9-12.8,24.8c1,3.3,6.2,4.9,7.6,8.7c1.5,4.4-2.2,3.6-2.9,6.5c-3,13-0.9,16.4,12.1,19.6c2.2,4.9,0.3,9.9,4.6,11.9
	c3.7,0.1,9.7,4.6,12.8,0c1.2,2.3-1.1,31.8,11.9,21.1c-1.9,12.5,10.5,8.3,15.6,14.7c0.3-1,0-1.6-0.9-1.8c4.6,3.5,4.7-1.9,7.3-4.6
	c0.7,0.7,4.6,0.4,4.6-0.9c1.2,0.8,0.4-0.3,2.7,1.8c-7.6,1.5,9.2,9.6,10.2,10.8c2.6,3.2,1.4,10.2,4.4,15.4c4.9,8.5,14.3,8.1,6.7,15.9
	c0,0-18.6,3-17.6,3.8c0,0.3,3.7,7.7,3.5,5.6c-0.1-1.3-6,4.8-5.4,6c2.3,4.1,7.8,1.8,10.1,5.4c4.9,7.8-3.3,14.2-2.8,20.5
	c2,0-0.1-0.9,1.8-0.9c0.2,2.2-2.7,5.2-2.7,1.8c-8.2,17.4-30.7,18.2-34.4,38c-1.3,6.9,6.6,7.5-4,12.2c-6.3,2.8-12-2.4-16.8-2.4
	c-1.1,0-20.6,7.7-18,10.4c-0.5-0.6-10.4-5.2-10.1-3.8c-0.9-6.1,1.1-8.6-4.5-14.4c-2.2-2.3,2.3,13.3,2.6,14
	c-11.4,1.8-15.7-11.8-24.8-10.4c-9.1,1.4-13.2,14-21.9,14c3.3,5-3.9,13.6-2.8,7.3c-6.2,1.9-0.5,9.7-3.7,10.1c-4,0.4-2.1-5.3-4.4-5.2
	c0.8,0-8.9,0-8.5-0.3c0.4,0.5,0.6,4.9,0.2,5.2c-5.9,2.9,0.3-7.6-6.3,3c-2.6,4.2-9.9-9.1-9-9.1c0.1,0-6.3,10.8-6,1.8
	c-2.3,0-7.7,4.7-9.3,5.2c-0.3,0.1-9.9,0.2-11.7,0.5c-7.4,1.1-13,0.8-20.7,0.2c-5.1-0.4-6-3.4-12.1-1.1c-2.8,1.1-4.2,9.4-6.6,7
	c0.6,0.7,1,2.4,0.9,2.7c-4.8-2.5-1.4,17.8-1.8,18.3c5.5-2.5,3.8,7.5,4.6,11c-0.8,0.2-1.1-0.1-0.9-0.9c-0.9,4-3,6-3.9,11.6
	c-0.7,3.8,1.5,7.6-0.4,11.9c-2.3,4.9-5.9,1-7.5,6.2c-3,9.5,3.9,2.7,5,6.8c1,3.7-8.7,11.5-8.7,13.8c2.4,1.2,7.5,4.5,8.4,7.2
	c2.3,7.1-3.7,5.4-4.2,7c-1.9,6-4,9.5,1.2,15.4c1.4,1.6,14.7,5.6,14.3,7c-0.7,2.4-4.1,5.8-2.3,10.1c-23.1-6.6-17.8,31.5-43,24.7
	c0,2.1,4.7,11.2,6.4,12.8c-6.1-1-7.7,7.8-8.2,10.1c-6.8,0-8.4,2.1-14.2,2.1c-6.7,0.1-13.3-2.6-18.7-1.2c-0.3,1.4,0.3,1.7,0.4,4.2
	c0.5,7.2-0.8,5.7-2.3,11.4c2.2-0.3,4.3,0,6.4,0.9c-4.5,5.7-13.8,10.7-12.8,19.2c5.5-3.8,7.3-6.1,13.1-8.8c4.3-2,7.2,4.5,10.7-3.1
	c5.2,5.3,9.1,11.6,16.2,14.4c3.8,1.5,1.7-6.2,6.7-6.2c-1.6,11.2,14.6,23,17.4,32.7c1.9,6.5-2,12.9,1.8,14.9
	c-11.8,7.3,2.7,11.4,2,15.7c-0.5,3.8-8.1,3.9-9.6,7.9c-2.8,7.6,4.9,5.3,4.8,11.1c-6.4-4.1-2.1,8.4-2.7,7.3c-0.3,0.8-0.9,1.1-1.8,0.9
	c1.9,1.8,0.7,2.6,1.8,3.7c-2.9,5.3-13.7-11.2-14.1-11.9c-4.3-9,0.8-20.2-3.7-28.6c-1.3-2.4-12.5-15.7-17.5-19
	c-3.4-2.3-10.4-4-13.6-6.1c-1.2-0.8-2.7-5.8-4.1-7c-4.3-3.8-4.3,2.4-9.3-0.6c4-7.7-12.1-27.4-20.2-29.3c0.4,5.8-29.5-16.4-32.7-19.4
	c-8.4-7.9-6.1-5.8-10.7-15.1c-0.3-0.7-5.6-6.4-7-7.7c-0.8-0.7,0-4.4-0.9-5.7c-0.9-1.4-3.9,1.5-5.5,0.2c2.1-3.2-5.1-14-7.1-16.9
	c-3.1-4.5-11-9.4-17.8-9.9c-4.9-0.3-10,4.8-16.4,4.8c-5.9-0.1-22.5-6.2-21.1-11c-7.3,6-9.1-3.8-9.6-4.1c2.5,1.6-4.1-6.1-3.6-5.6
	c-3.4-3.6-11.2-4.1-14.3-6.8c4.6-3.6-3.7-5.1-6.4-4.6c0.9-2.1,4.7-14.7,0.5-15.6c-1.9-0.4-3.8,2.9-6.4,2.4c-2.8-0.5-5.4-1.8-8.3-2.4
	c-0.3-0.1-3.9,2.3-6,1.8c-3.4-0.8-1.6-7.3-6.4-8.2c-1.9,9-16.6,2.4-21.4,2.8c-1.7,0.2-3.8-1.3-5.8-0.6c-2.4,0.8-1,6.9-7.6,6.9
	c-0.1,1.1,0.2,2.2,1.1,3c-0.7,1.1-7.8,3.4-9.6,4.9c-2.2,1.8-4.1,5-5.9,6.9c-5.1,5.1-9.3,13.3-14.6,17c-6.4,4.4-16.6,5.2-24.1,10.2
	c-4.5,2.9-2.7,5.9-8.5,6.5c-1.8,0.2-5-5-7.1-5.4c-6.4-1.3-2.6,5.4-7.3,5.5c9.4-10.4-12.8-1.3-8.2-0.9c-10.9-0.8-3.7-6.1-13-11.2
	c-6.9-3.7-35.1,6.3-32.8,16.7c0.6,0.4-15.6,6.9-15.7,7.7c-1.2,6.9-6.1,7.2-9,15.1c3.6,0.4-2.4,19.4-6.4,18.3c1.9,1.9-0.1,11,0,12.8
	c0.1,4.4,4.8,4.9,0.9,11.2c-4.7,7.7-8.6-0.3-14.9,0.6c-1.3,0.2-10.7,8.5-12.7,10c-9.3,7.3-1.7,6-6.3,13.4c-3.6,5.8-2.1,4.9-3.2,11.7
	c-0.3,1.6-5.9,1.6-7.2,3.9c-0.5,1-1.5,5.1-2.5,6c0.5-0.5-5.5,5.5-3.9,3.3c0.8-1.1-7-2.8-5.1,2.4c2.1-0.5,3,0,2.7,1.5
	c-2.4,2.2-2.7-1-4.6,0.9c6.8-0.6,15.1,6.8,19.2,11c-2,1.6,1.3,4.2,2.3,6.2c3.7,7.8,3,11,0,19.3c-2.8,7.9-4.9,17.9-12.3,24.7
	c-7.6,6.9-30.5,15.8-28.5,24c-0.7-1.2-45.8,1.6-46.7,1.8c-1.3,0.8-1.3,1.1,0,0.9c-2.5-0.6-15.2,0.6-18.3,1.8
	c0.3,0.3,1.7,3.2,1.5,4.4c0.5-3.2-30.6-1.7-30.8-1.6c-14.9,0.9-30.3,3.4-44.4,8.6c-8.7,3.2-11.2,7.5-18.7,12.5
	c-3.7,2.5-7.2,2.3-11,4.6c0.4-0.2-1.8,6.1-3.3,7.4c-2.6,2.2-3.4-1.4-5.9,0.9c0.4-0.4-0.9,2-1.8,2.8c1.1-1-1.1,4-0.9,3.7
	c2.8,1.3,0,1,1.8,2.8c-5.2,4.3-12.2-7.3-11.9,3.7c2.6,10.2,7.3,26.1,14.2,37.5c8.1,13.4,22.8,20.3,32.3,32.4
	c2.9,3.7,9.2,17.6,8.5,17c2.6,4,3.1,1.6,4.6,0c5.6,9.3,12.6,12.9,13.4,25.2c0.6,9.5-3,18.5-2.7,28.1c0.5,17.8-1.8,20.8,5.3,35.1
	c14.2,28.6,27.1,54.4,45.3,81.1c13.9,20.5,30.3,39.2,44.1,59.7c4.6,6.9,7.1,14.3,10.8,21.4c1.3,2.5-1,1.6,0.3,3.9
	c0.9,1.6,7.3,7.3,10.2,10.8c7.2,8.7,16.2,19.9,22.3,29.2c4.1,6.3-2.9,4.1-1.3,6.7c1.6,2.6,9.9,7.1,12.9,10c7.2,7,18.5,20.6,21,22
	c4.9,2.7,17.1,7.3,20.1,9c2.8,1.5,5.9,14.7,6.4,16.7c0.6-2.9,1.7-1.3,3.7-0.9c0.2,1,0.9-6.2-0.1-4.5c6.7-12,23.9,16.7,25,20.3
	c1.9,6.4-1.4,17.4,2.6,17.2c0,1.2-1.5,1.5-2.7,1.8c4.5,1.4-1.5,3.3,2.7,3.7c-0.8-0.2-1.1,0.1-0.9,0.9c3.6,0,6,4.2,10.1,3.7
	c-1,0.6-3.7,3.5-3.7,4.6c2.4,0.6,4.6,3.8,4.6,7.3c-4.3,0,0.8,0.5-2.8,1.8c-0.1-0.7,0.2-1,0.9-0.9c-2.6-2-1.3,1-6.4,0
	c4.7,1.8,9.4,11.5,14.7,9.2c-0.7,2-0.6,2.5-0.9,2.7c1.2,0,9.4,5.2,7.3,6.4c1.9,0.5,2.9-0.8,3.7,1.8c-2.7-0.7-0.8,4-1.8,4.6
	c3.5,0.1,0.6,0.6,0.9,1.8c0.7,0.2,1.6-1.8,0.9,0c7.1,2.7-0.6,19.3-3.7,13.7c-0.7,4.9-1,6.1-0.9,3.7v0.9c4.3,4.4,21.1,13.6,22.9,21.1
	c1.5,0.4,25.4,20.8,23.8,22c10.5-2.6,22.7,16.2,33,15.6c-2.4-1.6,10.8-8.2,11.9-3.7c0.6,0.1,5.4-1,6.4-1.8c1-3.9-5.7-4.6,2.8-8.3
	c8.4-3.7,21.3,7.1,19.7,16.1c-1.1,6.1-16.2,16.4-9.6,24.3c2.8,0,7.5,1.2,8.2-1.8c3-2.7,3.6,0.3,5.5-0.9c-1.3,0.2-1.3-0.1,0-0.9
	c-1.1,0.2,4.2-0.1,4.6,0c7.8,9.9,3.3,2.2,13.7,1.8c3.1-0.1,11.4-2.4,8,3.8c-2.4,4.5-2.3,4.3,2.9,4.4c1.8,0,2.8,3.7,5.5,3.7
	c-2.4-2.8,14.4-4.2,14.3,7.8c0,4-8.6,7.3-9.7,12.4c3.4-2.3,1.4,1.7,4.6,0.9c-0.6,1-1.7,0,0,1.8c-2.7,0,7.5-6.6,7.3-6.4
	c-1.9-0.9-2.2-3.1,0-4.6c0.2,6.4,22.1,8.7,25.8,10.3c0.9,0.4,1.6-4,3.2-2.8c3.9,2.8,0.3,5.1,1.2,6.2c1.2,1.6,4.2,5.1,2.8,7.3
	c9.6-1,9.5,5.4,14.7-3.7c-5.3-2.4-10.1-6.6-3.5-12.3c2.2-1.9,3.3,5.4,8.6,0.2c5-5,0.5-11.2,2.3-15.4c0.8-1.9,5.5-3.6,6.2-4.7
	c0.8-1.3-0.9-2.6,0.8-4.5c3.6-4,10.5-14.6,15.9-14.6c3.7,0,7.8,6.5,10.7,7.4c1.3,0.4,2.7-6,4.9-4.6c1.8,1.2,2.4,5.5,2.8,5.7
	c6.3,3.5-4,9.3,6.2,3.4c2.5-1.5,2.6,5.1,2.9,5.5c1.3-2,2.6-2.4,4.1-1.2c1.2-3.3-2.3-5.4-0.2-8.6c-0.2,0.3,3-0.7,3.6-1.6
	c1-1.4,2.4-4.2,3.5-5.7c1.3-1.8,13.5-2.9,5.5-8.6c2-1.4,9-4.6,10.1-0.9c2.1-1.7,7.5-6.6,10.5-5.5c1.2,0.5-1.8,10.8-1.4,11.9
	c0.8-0.8,10.8-5.7,12.8-5.7c1.7,0,10.7,3.2,6.6,4.2c5.6-1.3,5.8-8.6,11.3-9.8c6.4-1.3,8.6,6.1,14.4,3.8c2.2-0.9,5.3-7.9,7.5-9.3
	c2.3-1.4,13.2-2,17.5-3.1c2.6-0.6,4.1-2.2,9.5-1.5c3.7,0.4,6.1,3.3,9.7,3.9c3.6,0.6,9.7,4,10.7-0.8c0.4,0.8,5.8,6.4,7.3,6.4
	c7.9-13.2,4.7-7.8,14.3-5.9c1.1,0.2,7.1-11,8.6-3.3c1.8-4.3,9-3.8,11.9-4.6c0-2.9-1.3-3.4-1.7-6.4c-0.4-4.1-4.7-7.3-3.8-11.9
	c0.2-1.1,4.5-1.9,5.2-3.3c3.7-6.8,7.6-9.3,12.5-14.6c6.6-7.3,9.2-16.5,14.3-25.1c-10.7,8.7-4.7-20.9-0.9-25.6
	c8.4-10.7,11.9-3.6,22.2,2.1c6.9,3.8,12.7,3.4,19.3,4.7c2.7-1.8,5.5-2.2,8.5-1.3c0.5,2.1,1,4.2,1.3,6.4c3.1,1.8,36.5,19.1,37.6,13.7
	c-8.5-3.1-2.9-14.3,4.2-12.8c-0.9-0.2,12,10,10.6,8.8c-0.1-0.1,5.2,7.1,5.8,7.2c3.9,1.1,13-8.1,16.1-1.9c0.1,0.1,1.8,12.9,1.8,14.2
	c2,0,12.8-7.7,17.6-10.1c6.5-3.3,14.3-5.8,20.7-8c5.2-1.8,8.7-1.1,13.6-6c9-9.1,8.4-17,21.8-21.8c11.8-4.2,26.6-10.7,35.3-0.8
	c-4.8,3.4-4.6,11.4-4.6,14.6c12.3,1.6,19.7,31.3,24.1,34.7c7,5.4,15.4,12.8,19,18.9c1.6,2.7,2.2,7.7,5.4,7.7
	c-0.9,1.1,13.9,8.7,15,12.3c1.1,3.5-4.5,5.7-5,7.8c-0.4,2,3.8,2.5,2.8,6.4c-8.1-5.6-8.4,17.3-8.5,20.3c-0.2,7.7,2.4,22-4.4,28.3
	c3-0.1,6.7,19.7,5.5,24.7c-2.8,12.3-5.9,20.5-9.2,31.8c-1.2,4.2-2,16.6-1,20.8c2.1,8.5,13.7,12,15.3,20.6c0.9,5-0.9,9.8-1,14.3
	c-0.2,8.8,0.3,14.8,2.3,21.4c3-3.3,7.3-10.9,8.2-13.7c1.7,3.1,3.8,5.8,6.4,8.2c1-3.3,13-4.2,17.4-2.7c10.4,3.4,6.8,7.3,20.1,5
	c0.3-0.1,0.6-3,1.4-3.2c3-1,6.1,0.9,9.1,0.5c4.1-0.5,5-0.2,8.4-0.1c8.6,0.2,8.3,1.9,17.8-2.2c3-1.3,10.9-9.5,12.8-4.6
	c0.7-3.9,29.2-17.3,33-17.4c-2.3,7.7,5.1,9.2,6.9,12.9c1.7,3.3,0,7.6,2.1,12.6c4.4,11,17.1,27.8,30.7,26.7
	c15.5-1.2,30.8-45.1,46.5-36.6c-0.8-5-8.1-5.1-6.4-12.8c2.3-10.6,9.7-3.4,12.7-5c4.7-2.5,5.3-9,9.7-11.3c2.1-1.1,11.6,0.5,15.1-0.6
	c-2.6,0.8-23.1-28-10-28.8c-14.1-28.1,15.9-4.7,17.6-7.5c2.9-4.5-2.3-12.1-1.2-16.3c0.9-3.1,8.6-6.9,10.1-11.9
	c1.1,0.7,2,1.6,2.7,2.8c1.6-9.3,9.5,3.2,10.1-6.4c13.1,7.6,21-15.5,33.8-15.1c5,0.2,11.3,12.8,18.4-2.3c4.8,4.8,13.2,0,18.7-5.8
	c3-3.1,3.5-6.7,7-9.2c3.7-2.7,13.7-4.8,18.3-4.2c1.7,0.2,6.2,4.3,8.7,5c6.7,1.9,8.8,0.4,11.4,0.5c-0.7,0,2-5.6,4.8-1.1
	c0.7,1.2-1.9,7.9-2.3,9.5c0.1-0.3,15.1,6.7,15.8,7.1c-1.7-3.7,12.8-10.2,6.4-15.6c3.3-0.3,8.9-12,6.4-12.8c1.1-0.3,2.7-15.5,5.3-20
	c3.4-5.7,5.9-3.8,9.3-8.9c5.9-8.8,5-17.6,9.5-27.1c3.8-8.1,18.4-19.7,9.8-28.3c4.5,0.2,2.6-3.7,5.5-5.5c5.1-3.2,3.4,7.3,11.9,1.8
	c-2.6-1.5-5.3-2.4-8.2-2.8c1.4-1.8,3.2-2.5,5.5-1.8c-11.5-5.2-10.1-6.5-4.6-13.2c4.9-5.9,12.5-6.9,2.4-14.7c-2.6-2-9.5-1-11.5-3.3
	c-3.3-3.9,4.1-13.5-3.7-15.6c2.1,2.9-52.6,38.8-44.9,8.2c-2.7,1.2-7.9,0.4-11,0.9c-4.2,0.7-8.5,4.7-10.5,5.5c-0.1,0-9.5,5-11,3.7
	c-3.2-2.8,3.6-10.3,6-10.1c-1.4,1.5-1.4,2.1,0,1.8c1.4-4.1,1.8-9.6,5.5-11.9c1.8,0.8-2.3-20.9-0.9-21.1c-2.5-0.8-3.1-2.4-1.8-4.6
	c-1.6,1.4-2.8,1.4-3.7,0c0.6-1.4,4.7-2.6,0-2.8c0-3.7,7.9-5.5,4.6-11.9c-1.8,1.8-1.5-0.5,0-1.8c-2.1,0-2.4,0-0.9,0
	c-5.5,0.4-14.6-5.1-20-8.7c-1.5-1-5.5,0.4-6.4-0.6c-2.5-2.6-1-3.5-3.3-7c-1.2-1.8-5.3-4.2-2.4-6.6c-7,0.6-3.6-8.4-4.6-11.9
	c-2.1,1.1-4.3,1.1-6.4,0c6.7-4.4,12.1-10.4,11.5-16.9c-0.5-5.1-11-18.1-14.2-17.9c0-1.3,3.1-4,3.7-6.4c-1.8,0.8-3.6,1.5-5.5,1.8
	c4.3,1.5-0.1-15.1-0.1-15.4c0.2-2.5,1.7-5.2,3.7-8.9c2.9-5.1,10.7-8.5,11.9-11.4c6.4,10.4,34.3-1.6,15.6-9.1
	c16.2-8.5,6.6-17.4,6.9-26.1c0.1-4.3,5.5-4.4,3.5-10.3c-1.1-3.3-7.9-5.5-10.4-7.7c-4.8-4.4-18.8-17.1-10.1-22.7
	c-6.1-3.7-7.6,9.7-16.5,0.9c1.9,1.9-3-1.7-4.6-1.8c-4.5,0-26.4-4.3-33-8.2c0.6,9.9-27.3-3.9-29.7-5c-7.9-3.5-5.3-4-9.6-4
	c-8.8,0.1-15.6,5.5-23.1,10.8c-7.1,5.1-14.2,10-19.7-7.2c-2.6-8.2,0.5-16.6,7.1-21.2c-2.1-0.1,0.3,0.3,0-0.9
	c-2.1-0.4-2.4-0.1-0.9,0.9c-5.3-1.7,3.9-2.9,4.5-4.5c0.2-0.5-1.2-7.6-0.8-9.2c1.1,0,2,1,2.8,1.8c0.1-1.9-9.6-14-4.6-16.5
	c-9.4-3.7,1.4-23.7-6.4-19.2c-1.8-5.6,0.3-7.7,6.4-6.4c-7-12.6,15.6-1.9,15.4-1.9c-0.8-0.2,2.4,1.8,2.9,1.9c7.9,2.6,11.7-2.6,15.8-3
	c-0.4-2.3,0.5-3.7,2.8-4.3c2.5,0.7,4.5,2.1,5.9,4.3c1.8-0.2,8.1,6.6,9.5,0.4c1.6-6.7-19.7-14-13-21.2c2.8,3.7,24.2,5,29.2,5.5
	c8.8,0.9,13,4.2,21.2,6.4c0,1.4-0.8,1.2-1.8,0.9c-3.6,6.6,9.8,19,14.2,20.2c11.3,3.2,16.9-11.4,4.1-13.8c6.4-6.7,15.6,0.3,22.9-1.8
	c0.9-0.3,11.2-5.6,11.9-6c4.2-2,6.9-5.4,11.5-7c5.1-1.7,11.9,0.5,16.3-1.3c15.1-6.1,1-13.9,5.2-25.5c1.9-5.1,6.3-8.2,11.6-8.5
	c11.5-0.7,11.4,7.5,20.3-5.1c1.5-2.2,2.1-11.2,2.8-11.7c3-2,12-3.2,11.9,2.8c3-1.4,8.5-2.4,11-3.9c3.9-2.2-0.2-5,2.1-6.1
	c5.3-2.6,3.2,9.1,6.2,9.1c4.7-17.4,13.9,0.2,17-10.5c1.7-5.9-6.9-3.5-4.4-9c0.1-0.3,10.1-4.7,10.3-4.7c0.8-0.3,0.2-4.1,1.2-4.6
	c0.9-0.4,4.4,1.1,3.9,1.5c-3.6,3,6.7-0.8,4.7-0.2c0.8-0.3,2.6-5.5,4.1-6.4c4.7-2.8,8.9-0.9,13.6-2.7c0.8-0.3,0.1-4.3,3.7-4.8
	C1690.4,1392.2,1692.1,1396.3,1697.1,1396.2C1701.8,1393.9,1693.8,1396.3,1697.1,1396.2z"/>
<g id="colinadancia">
	<path class="st1" d="M1103.9,2172.3c1.4-9.8,2.1-0.4,5.8-2.9c2.7-1.8,0.9-7.5,2.2-9.7c1.8-2.8,2.4-0.3,4.4-2.7
		c2-2.4,0.7-5.2,4.4-6.6c1.1-0.4,8.9-0.4,8,0.5c3.6-3.7-1.4-5.9,1.1-9.6c5.2-7.8,13.1,0,5.7-12.2c4.7-6.9,8.9,5.2,7.2-8.6
		c2.2,1.2,11.3,5.8,10.1-0.7"/>
	<path class="st1" d="M773.4,317.3c12.7-3.5-9.6-15.8-10.8-16.9c-6.7-6.3-8.1-14.5-11.5-23.4c-16.1,12.5-22.3,14.6-42.7,15.5
		c0.7,0-37.7,3.7-34.5,8.5c2.4,3.5,0.1,10,6.1,12c-3.8-1-9,3.6-11.5,2.9c1.7,0.5-11.5-10.1-11.5-10.2c-3.3-3.2-10-14.5-13.7-12.2
		c0.1-4.5-9.4-6-12.3-9.1c-5.2-5.6-5.4-14.6-9.3-21.1"/>
	<path class="st1" d="M1975.5,496c-11.3-10-21.6-10.1-32.4-21.6c-3.8-4.1-3.3-6.3-9.5-9.3c-2.5-1.2-7.2-0.7-9.9-2
		c-2.7-1.3-3.9-5.6-7.9-6.7"/>
	<line class="st1" x1="2197.8" y1="556.9" x2="2149.6" y2="616.6"/>
	<path class="st1" d="M1506.1,520.1c-10.3,13.6-16.7,31.3-22,47.5c-4.1,12.6-15.9,29.5,4,31.7c0.3,5.9-1.8,13-3.6,18.7
		c2.3-0.2,4.3-1.1,5.8-2.9c1.1-2.1,13.2,19,14.9,20.8c10.1,11.2,22.6,13.3,32.6,23.9"/>
	<path class="st1" d="M265.5,1196.1c-11.6-12.9-12.7-35-28.9-44.2c-11.8-6.7-13.8,2.1-22.9,6c-13.7,6-25-2.4-38.7-6
		c-12.4-3.2-22.2-14.8-33.8-4c-2.4,2.2-2.3-10.4,1.4-13.4c7.7-6.1,4.4,1.7,11.6,0.6c18-2.7,21.1-37,28.6-48.5
		c6,8.7,15.2-8.9,17.2-12.5c5.7-10.1,6.9-12.4,15.1-19.2c11.2-9.2,21.4-17.7,31.6-29.5"/>
	<path class="st1" d="M1940.3,1417.2c-4.3-0.7-8.1-0.5-11.5-3.6c0.4,0.4-0.9-7.9,4.3-2.9c2.6-4.6-6.4-3.5-7.2-4.3
		c3.1-3.1,12-6.6,10.1-12.2c-0.6-1.7-8.2-0.4-9.3-1.4c-1.2-1.1-1.4-5.6-2.3-6.1c-5.9-2.9-18.2-1.2-22.3,5.6c-1.1,1.9,7,10.8,0,9.5
		c-1-0.2-5-8-5.4-10.2c-0.8-6,3.3-9.7,4-14.9c-0.2,1.1,2.9-14.5-1.5-9.7c-4.7,5.2-1.4,5.5-10.7,7.9c-9.7,2.6-20.2,0-29.4-3.8"/>
	<path class="st1" d="M736.3,2069.8c12.3-5-4.1-25.1-11.6-25.8c-8.5-0.8,0,2.2-8.5,5.5c-2.3,0.9,0.4-7.3,0-7.9
		c-0.4,0.4-0.9,0.7-1.4,0.7c7.6-6.3-13.2-10.6-18-6.5c-2.8,2.5-3.3,14.3-2.2,16.6c-0.7-1.7-1.4-1.9-2.2-0.7
		c0.6-5.5-6.8-8.9-5.8-10.8c-3.1,0.3-9.5,3.4-8.6,7.9c-3.4-0.8-3.4-2.1-5-4.3c-1.9,1.8-0.4,6.4,0,8.6c-4.6-0.4-6.1-6.4-7.9-8.6
		c-0.3-0.3,2.4-2.4,0.7-3.9c-2.7-2.4-3.8-1.2-7.1-3.3c-10.1-6.4-28-12.3-42.8-15.8c-11.4-2.7-22.7-4.7-33.8-8.5
		c-11.4-4-24.5-12.3-37-11.7"/>
</g>
</svg>
