<?xml version="1.0" encoding="UTF-8"?>
<svg width="172px" height="65px" viewBox="0 0 172 65" version="1.1" xmlns="http://www.w3.org/2000/svg" xmlns:xlink="http://www.w3.org/1999/xlink">
    <!-- Generator: Sketch 51.3 (57544) - http://www.bohemiancoding.com/sketch -->
    <title>logo</title>
    <desc>Created with Sketch.</desc>
    <defs>
        <linearGradient x1="49.9959212%" y1="21.4745711%" x2="49.9959212%" y2="83.0227013%" id="linearGradient-1">
            <stop stop-color="#3DC0CB" offset="0%"></stop>
            <stop stop-color="#009FDC" offset="45.51%"></stop>
            <stop stop-color="#0F4B90" offset="96.11%"></stop>
        </linearGradient>
        <linearGradient x1="49.9982059%" y1="-10.9104776%" x2="49.9982059%" y2="57.2663743%" id="linearGradient-2">
            <stop stop-color="#3DC0CB" offset="0%"></stop>
            <stop stop-color="#009FDC" offset="45.51%"></stop>
            <stop stop-color="#0F4B90" offset="96.11%"></stop>
        </linearGradient>
        <linearGradient x1="50.0351124%" y1="21.4745711%" x2="50.0351124%" y2="83.0227013%" id="linearGradient-3">
            <stop stop-color="#3DC0CB" offset="0%"></stop>
            <stop stop-color="#009FDC" offset="45.51%"></stop>
            <stop stop-color="#0F4B90" offset="96.11%"></stop>
        </linearGradient>
        <linearGradient x1="49.9663834%" y1="-10.9104776%" x2="49.9663834%" y2="57.2663743%" id="linearGradient-4">
            <stop stop-color="#3DC0CB" offset="0%"></stop>
            <stop stop-color="#009FDC" offset="45.51%"></stop>
            <stop stop-color="#0F4B90" offset="96.11%"></stop>
        </linearGradient>
    </defs>
    <g id="web" stroke="none" stroke-width="1" fill="none" fill-rule="evenodd">
        <g id="lamdimg5" transform="translate(-160.000000, -32.000000)" fill-rule="nonzero">
            <g id="logo" transform="translate(160.000000, 32.000000)">
                <path d="M29.3352974,54 C28.8172989,54 28.2993004,53.9758221 27.8048472,53.9274662 C19.3991439,53.05706 13.2302524,45.3201161 14.0778863,36.688588 C14.360431,33.9081238 15.3493372,31.2727273 16.9033328,29 L17.4684221,29.4352031 C15.9379719,31.5870406 15.0197018,34.1257253 14.7607025,36.7611219 C13.9601594,45.0299807 19.8465062,52.4042553 27.8754834,53.2263056 C31.31311,53.5647969 34.7742819,52.6702128 37.6232738,50.6634429 L38,51.2437137 C35.4806435,53.05706 32.4432886,54 29.3352974,54 Z" id="Shape" fill="#FFFFFF"></path>
                <path d="M42.3187598,47 L41.803927,46.5586144 C43.7462509,44.3052245 44.9631285,41.5407565 45.2673479,38.567211 C46.0629986,30.6222694 40.2126255,23.5368682 32.2327165,22.7470202 C28.3012657,22.375327 24.4634209,23.5136374 21.4446284,26.0225663 L21,25.5114882 C24.182603,22.8864051 28.1842582,21.6784023 32.2795195,22.0733263 C40.6338523,22.9096359 46.7650434,30.3434995 45.9225897,38.6369035 C45.6183703,41.7730647 44.3780912,44.6769176 42.3187598,47 Z" id="Shape" fill="#FFFFFF"></path>
                <g id="Group" transform="translate(63.000000, 26.000000)">
                    <g fill="#FFFFFF" id="Shape">
                        <path d="M15.8747093,15.9565 L6.6065407,15.9565 L4.84796512,20.1865 L0.118822674,20.1865 L9.00675872,0.4465 L13.5695494,0.4465 L22.5050145,20.1865 L17.6570494,20.1865 L15.8747093,15.9565 Z M14.4250727,12.502 L11.2881541,4.935 L8.1037064,12.502 L14.4250727,12.502 Z"></path>
                        <path d="M37.3103198,20.1865 L33.4604651,14.6875 L33.2228198,14.6875 L29.1828488,14.6875 L29.1828488,20.1865 L24.5487645,20.1865 L24.5487645,0.4465 L33.1990552,0.4465 C38.522311,0.4465 41.8731105,3.1725 41.8731105,7.6375 C41.8731105,10.5985 40.3521802,12.784 37.7618459,13.865 L42.2295785,20.21 L37.3103198,20.21 L37.3103198,20.1865 Z M32.9851744,4.1595 L29.2066134,4.1595 L29.2066134,11.045 L32.9851744,11.045 C35.8131541,11.045 37.2152616,9.7525 37.2152616,7.5905 C37.2152616,5.4285 35.7893895,4.1595 32.9851744,4.1595 Z"></path>
                        <polygon points="52.828561 12.4315 50.1194041 15.2045 50.1194041 20.1865 45.5328488 20.1865 45.5328488 0.4465 50.1194041 0.4465 50.1194041 9.682 58.959811 0.4465 64.0929506 0.4465 55.846657 9.2355 64.6157703 20.163 59.2212209 20.163"></polygon>
                        <path d="M64.687064,10.3165 C64.687064,4.4415 69.3211483,0.094 75.61875,0.094 C81.8925872,0.094 86.550436,4.418 86.550436,10.3165 C86.550436,16.215 81.8925872,20.539 75.61875,20.539 C69.2973837,20.539 64.687064,16.168 64.687064,10.3165 Z M81.8688227,10.3165 C81.8688227,6.5565 79.1834302,3.995 75.61875,3.995 C72.0540698,3.995 69.3924419,6.5565 69.3924419,10.3165 C69.3924419,14.0765 72.0778343,16.638 75.6425145,16.638 C79.1596657,16.638 81.8688227,14.0765 81.8688227,10.3165 Z"></path>
                        <polygon points="108.342515 0.423 108.342515 20.163 104.540189 20.163 94.5828488 8.178 94.5828488 20.163 90.0200581 20.163 90.0200581 0.423 93.8461483 0.423 103.755959 12.408 103.755959 0.423"></polygon>
                    </g>
                    <g transform="translate(0.712936, 24.440000)" fill="#00A1DF" id="Shape">
                        <path d="M0.0237645349,0.1645 L2.21010174,0.1645 C3.77856105,0.1645 4.87172965,1.081 4.87172965,2.538 C4.87172965,3.995 3.80232558,4.9115 2.21010174,4.9115 L0.0237645349,4.9115 L0.0237645349,0.1645 Z M2.13880814,3.995 C3.11315407,3.995 3.73103198,3.431 3.73103198,2.538 C3.73103198,1.645 3.11315407,1.081 2.13880814,1.081 L1.11693314,1.081 L1.11693314,3.995 L2.13880814,3.995 Z"></path>
                        <path d="M38.1896076,3.901 L35.9557413,3.901 L35.5279797,4.935 L34.387282,4.935 L36.5260901,0.1645 L37.6192587,0.1645 L39.7818314,4.935 L38.6173692,4.935 L38.1896076,3.901 Z M37.8569041,3.055 L37.096439,1.222 L36.3597384,3.055 L37.8569041,3.055 Z"></path>
                        <polygon points="70.4618459 1.0575 68.9171512 1.0575 68.9171512 0.1645 73.0997093 0.1645 73.0997093 1.0575 71.5550145 1.0575 71.5550145 4.935 70.4380814 4.935"></polygon>
                        <path d="M106.061119,3.901 L103.827253,3.901 L103.399491,4.935 L102.258794,4.935 L104.397602,0.1645 L105.49077,0.1645 L107.653343,4.935 L106.488881,4.935 L106.061119,3.901 Z M105.728416,3.055 L104.967951,1.222 L104.207485,3.055 L105.728416,3.055 Z"></path>
                    </g>
                </g>
                <g id="Group">
                    <g id="Shape">
                        <polygon fill="url(#linearGradient-1)" points="13.1507813 53.3375451 28.3359375 44.4205776 30.3703125 0 23.6859375 41.7689531"></polygon>
                        <polygon fill="url(#linearGradient-2)" points="0.1453125 64.8592058 21.6515625 40.9945848 25.7929687 16.7075812 17.728125 39.234657"></polygon>
                    </g>
                    <polygon id="Shape" fill="url(#linearGradient-3)" points="49.01875 53.3375451 33.8335938 44.4205776 31.775 0 38.4351563 41.7689531"></polygon>
                    <polygon id="Shape" fill="url(#linearGradient-4)" points="62 64.8592058 40.5179688 40.9945848 36.3523438 16.7075812 44.4414063 39.234657"></polygon>
                </g>
            </g>
        </g>
    </g>
</svg>