<svg version="1.1" xmlns="http://www.w3.org/2000/svg" xmlns:xlink="http://www.w3.org/1999/xlink" x="0px" y="0px"
	 viewBox="0 0 1000 350" style="enable-background:new 0 0 1000 350;" xml:space="preserve">
	<style type="text/css">
		.st0{fill:#EF5E0B;}
		.st1{fill:#FF7425;}
		.st2{fill:#FFFFFF;}
	</style>
	<g class="letras">
		<g>
			<g>
				<path d="M369.8,107.8c0-22.4,11.6-35.1,32.9-35.1c21.3,0,32.9,12.8,32.9,35.1v72.7c0,22.4-11.6,35.1-32.9,35.1
					c-21.3,0-32.9-12.8-32.9-35.1V107.8z M391.5,181.8c0,10,4.3,13.8,11.2,13.8c6.9,0,11.2-3.8,11.2-13.8v-75.5
					c0-10-4.3-13.8-11.2-13.8c-6.9,0-11.2,3.8-11.2,13.8V181.8z"/>
				<path d="M512.3,161.9v18.6c0,22.4-11,35.1-32.3,35.1c-21.3,0-32.3-12.8-32.3-35.1v-72.7c0-22.4,11-35.1,32.3-35.1
					c21.3,0,32.3,12.8,32.3,35.1v13.6h-20.5v-15c0-10-4.3-13.8-11.2-13.8c-6.9,0-11.2,3.8-11.2,13.8v75.5c0,10,4.3,13.6,11.2,13.6
					c6.9,0,11.2-3.6,11.2-13.6v-20H512.3z"/>
				<path d="M519.2,72.6h66.9V93h-22.6v122.6h-21.6V93h-22.6V72.6z"/>
				<path d="M658.2,215.5h-21.8l-3.7-25.9h-26.6l-3.7,25.9h-19.9l22-143h31.7L658.2,215.5z M608.8,170.2h20.9l-10.4-72.3L608.8,170.2
					z"/>
				<path d="M665.3,134.1h39.4v20h-39.4V134.1z"/>
				<path d="M783.6,107.9v18.6c0,22.9-10.6,35.3-32.3,35.3h-10.2v53.7h-21.7v-143h31.9C773,72.6,783.6,85,783.6,107.9z M741.1,93
					v48.4h10.2c6.9,0,10.6-3.3,10.6-13.5v-21.4c0-10.2-3.7-13.5-10.6-13.5H741.1z"/>
				<path d="M793.7,72.6h21.7v122.6H851v20.4h-57.3V72.6z"/>
				<path d="M881.1,72.6v109.1c0,10.1,4.3,13.7,11.2,13.7c6.9,0,11.2-3.6,11.2-13.7V72.6H924v107.6c0,22.6-11,35.5-32.3,35.5
					c-21.3,0-32.3-12.9-32.3-35.5V72.6H881.1z"/>
				<path d="M967.9,72.6c21.1,0,31.9,12.8,31.9,35.1v4.4h-20.5v-5.8c0-10-3.9-13.8-10.8-13.8c-6.9,0-10.8,3.8-10.8,13.8
					c0,28.7,42.3,34.1,42.3,74.1c0,22.4-11,35.1-32.3,35.1c-21.3,0-32.3-12.8-32.3-35.1v-8.6h20.5v10c0,10,4.3,13.6,11.2,13.6
					c6.9,0,11.2-3.6,11.2-13.6c0-28.7-42.3-34.1-42.3-74.1C936,85.4,946.9,72.6,967.9,72.6z"/>
			</g>
		</g>
		<g>
			<path d="M391.7,236.6l15.9,41.1h-6l-4.4-12.4H380l-4.5,12.4H370l15.8-41.1H391.7z M395.5,260.7l-6.8-19.2h-0.1l-6.9,19.2H395.5z"
				/>
			<path d="M415.3,247.9v4.7h0.1c2-3.6,5.2-5.4,9.5-5.4c1.9,0,3.5,0.3,4.8,0.8c1.3,0.5,2.3,1.3,3.1,2.2c0.8,1,1.4,2.1,1.7,3.4
				c0.3,1.3,0.5,2.8,0.5,4.4v19.6h-4.8v-20.2c0-1.8-0.5-3.3-1.6-4.4c-1.1-1.1-2.5-1.6-4.4-1.6c-1.5,0-2.8,0.2-3.8,0.7
				c-1.1,0.5-2,1.1-2.7,2c-0.7,0.8-1.3,1.8-1.6,3c-0.4,1.1-0.5,2.4-0.5,3.7v16.8h-4.8v-29.8H415.3z"/>
			<path d="M468.4,277.6c-0.8,0.5-2,0.7-3.5,0.7c-1.3,0-2.2-0.4-3-1.1c-0.7-0.7-1.1-1.9-1.1-3.5c-1.3,1.6-2.9,2.8-4.6,3.5
				c-1.8,0.7-3.7,1.1-5.7,1.1c-1.3,0-2.6-0.2-3.8-0.5c-1.2-0.3-2.2-0.8-3.1-1.4s-1.6-1.5-2.1-2.6c-0.5-1.1-0.8-2.3-0.8-3.8
				c0-1.7,0.3-3.1,0.9-4.1c0.6-1.1,1.3-1.9,2.2-2.6c0.9-0.7,2-1.2,3.2-1.5c1.2-0.3,2.4-0.6,3.7-0.9c1.3-0.3,2.6-0.5,3.8-0.6
				c1.2-0.1,2.2-0.3,3.2-0.6c0.9-0.2,1.6-0.6,2.2-1.1s0.8-1.2,0.8-2.1c0-1.1-0.2-1.9-0.6-2.6c-0.4-0.7-0.9-1.2-1.5-1.5
				c-0.6-0.3-1.3-0.6-2.1-0.7c-0.8-0.1-1.5-0.2-2.3-0.2c-2,0-3.8,0.4-5.1,1.2c-1.4,0.8-2.1,2.3-2.2,4.5h-4.8c0.1-1.8,0.5-3.4,1.1-4.7
				s1.6-2.3,2.7-3.1c1.1-0.8,2.4-1.4,3.9-1.7c1.5-0.3,3-0.5,4.7-0.5c1.3,0,2.6,0.1,3.9,0.3c1.3,0.2,2.5,0.6,3.6,1.2
				c1.1,0.6,1.9,1.4,2.6,2.5c0.6,1.1,1,2.5,1,4.2v15.3c0,1.2,0.1,2,0.2,2.5c0.1,0.5,0.6,0.8,1.3,0.8c0.4,0,0.9-0.1,1.5-0.2V277.6z
				 M460.6,262.3c-0.6,0.5-1.4,0.8-2.4,1c-1,0.2-2,0.4-3.1,0.5c-1.1,0.1-2.2,0.3-3.3,0.5s-2.1,0.4-3,0.8c-0.9,0.4-1.6,0.9-2.1,1.6
				c-0.5,0.7-0.8,1.7-0.8,2.9c0,0.8,0.2,1.5,0.5,2c0.3,0.6,0.7,1,1.3,1.3c0.5,0.3,1.1,0.6,1.8,0.7c0.7,0.2,1.4,0.2,2.2,0.2
				c1.6,0,3-0.2,4.1-0.7c1.1-0.4,2.1-1,2.8-1.7c0.7-0.7,1.2-1.4,1.6-2.2c0.3-0.8,0.5-1.5,0.5-2.2V262.3z M462.2,233.4l-8,9.3h-3.6
				l5.5-9.3H462.2z"/>
			<path d="M478,236.6v41.1h-4.8v-41.1H478z"/>
			<path d="M485.8,242.6v-6h4.8v6H485.8z M490.6,247.9v29.8h-4.8v-29.8H490.6z"/>
			<path d="M501.8,271.1c0.5,0.7,1.1,1.3,1.8,1.8c0.7,0.4,1.6,0.8,2.5,1c0.9,0.2,1.9,0.3,2.9,0.3c0.8,0,1.6-0.1,2.4-0.2
				c0.8-0.1,1.6-0.3,2.3-0.6c0.7-0.3,1.3-0.8,1.7-1.4c0.5-0.6,0.7-1.4,0.7-2.3c0-1.3-0.5-2.2-1.4-2.9c-0.9-0.7-2.1-1.2-3.6-1.6
				c-1.4-0.4-3-0.8-4.6-1.1c-1.7-0.3-3.2-0.8-4.6-1.4c-1.4-0.6-2.6-1.4-3.6-2.5s-1.4-2.6-1.4-4.5c0-1.5,0.3-2.8,1-3.9s1.5-2,2.6-2.6
				c1-0.7,2.2-1.2,3.5-1.5c1.3-0.3,2.6-0.5,3.9-0.5c1.7,0,3.2,0.1,4.6,0.4c1.4,0.3,2.6,0.8,3.7,1.5c1.1,0.7,1.9,1.7,2.6,2.9
				s1,2.7,1.1,4.5h-4.8c-0.1-1-0.3-1.8-0.7-2.4c-0.4-0.6-0.9-1.1-1.6-1.5c-0.6-0.4-1.4-0.7-2.1-0.8c-0.8-0.2-1.6-0.3-2.4-0.3
				c-0.7,0-1.4,0.1-2.2,0.2c-0.7,0.1-1.4,0.3-2,0.6c-0.6,0.3-1.1,0.7-1.5,1.2c-0.4,0.5-0.6,1.1-0.6,1.9c0,0.8,0.3,1.5,0.9,2.1
				c0.6,0.6,1.3,1,2.2,1.4c0.9,0.4,1.9,0.7,3.1,0.9c1.1,0.3,2.3,0.5,3.4,0.8c1.2,0.3,2.4,0.6,3.6,1c1.2,0.4,2.2,0.9,3.1,1.5
				c0.9,0.6,1.6,1.4,2.2,2.4c0.5,1,0.8,2.2,0.8,3.6c0,1.8-0.4,3.3-1.1,4.5c-0.7,1.2-1.7,2.2-2.9,2.9s-2.5,1.2-4,1.5
				c-1.5,0.3-3,0.4-4.5,0.4c-1.6,0-3.2-0.2-4.7-0.5c-1.5-0.3-2.8-0.9-3.9-1.7c-1.1-0.8-2-1.8-2.7-3.1c-0.7-1.3-1.1-2.9-1.1-4.7h4.8
				C501.1,269.4,501.4,270.3,501.8,271.1z"/>
			<path d="M526.8,242.6v-6h4.8v6H526.8z M531.7,247.9v29.8h-4.8v-29.8H531.7z"/>
			<path d="M542.8,271.1c0.5,0.7,1.1,1.3,1.8,1.8c0.7,0.4,1.6,0.8,2.5,1c0.9,0.2,1.9,0.3,2.9,0.3c0.8,0,1.6-0.1,2.4-0.2
				c0.8-0.1,1.6-0.3,2.3-0.6c0.7-0.3,1.3-0.8,1.7-1.4c0.5-0.6,0.7-1.4,0.7-2.3c0-1.3-0.5-2.2-1.4-2.9c-0.9-0.7-2.1-1.2-3.6-1.6
				c-1.4-0.4-3-0.8-4.6-1.1c-1.7-0.3-3.2-0.8-4.6-1.4c-1.4-0.6-2.6-1.4-3.6-2.5c-0.9-1.1-1.4-2.6-1.4-4.5c0-1.5,0.3-2.8,1-3.9
				c0.7-1.1,1.5-2,2.6-2.6c1-0.7,2.2-1.2,3.5-1.5c1.3-0.3,2.6-0.5,3.9-0.5c1.7,0,3.2,0.1,4.6,0.4c1.4,0.3,2.6,0.8,3.7,1.5
				c1.1,0.7,1.9,1.7,2.6,2.9s1,2.7,1.1,4.5h-4.8c-0.1-1-0.3-1.8-0.7-2.4c-0.4-0.6-0.9-1.1-1.6-1.5c-0.6-0.4-1.4-0.7-2.1-0.8
				c-0.8-0.2-1.6-0.3-2.4-0.3c-0.7,0-1.4,0.1-2.2,0.2c-0.7,0.1-1.4,0.3-2,0.6c-0.6,0.3-1.1,0.7-1.5,1.2c-0.4,0.5-0.6,1.1-0.6,1.9
				c0,0.8,0.3,1.5,0.9,2.1c0.6,0.6,1.3,1,2.2,1.4c0.9,0.4,1.9,0.7,3.1,0.9c1.1,0.3,2.3,0.5,3.4,0.8c1.2,0.3,2.4,0.6,3.6,1
				c1.2,0.4,2.2,0.9,3.1,1.5c0.9,0.6,1.6,1.4,2.2,2.4c0.5,1,0.8,2.2,0.8,3.6c0,1.8-0.4,3.3-1.1,4.5c-0.7,1.2-1.7,2.2-2.9,2.9
				s-2.5,1.2-4,1.5c-1.5,0.3-3,0.4-4.5,0.4c-1.6,0-3.2-0.2-4.7-0.5c-1.5-0.3-2.8-0.9-3.9-1.7c-1.1-0.8-2-1.8-2.7-3.1
				c-0.7-1.3-1.1-2.9-1.1-4.7h4.8C542.1,269.4,542.4,270.3,542.8,271.1z"/>
			<path d="M604.8,277.7v-4h-0.1c-0.8,1.7-2,2.8-3.8,3.6c-1.7,0.7-3.6,1.1-5.6,1.1c-2.3,0-4.3-0.4-5.9-1.3s-3.1-2-4.2-3.4
				c-1.1-1.4-2-3.1-2.5-5c-0.6-1.9-0.9-3.9-0.9-6c0-2.1,0.3-4.1,0.8-6c0.5-1.9,1.4-3.5,2.5-4.9c1.1-1.4,2.5-2.5,4.2-3.3
				c1.7-0.8,3.6-1.2,5.9-1.2c0.8,0,1.6,0.1,2.4,0.2c0.9,0.2,1.7,0.4,2.6,0.8c0.9,0.4,1.7,0.8,2.5,1.4c0.8,0.6,1.4,1.3,2,2.2h0.1
				v-15.3h4.8v41.1H604.8z M587.4,267.1c0.4,1.3,0.9,2.5,1.6,3.5c0.7,1,1.7,1.9,2.8,2.5c1.2,0.6,2.5,0.9,4.1,0.9c1.6,0,3-0.3,4.1-1
				s2.1-1.5,2.8-2.6c0.7-1.1,1.2-2.3,1.6-3.6c0.3-1.3,0.5-2.7,0.5-4.1c0-1.5-0.2-2.9-0.5-4.2c-0.3-1.4-0.9-2.6-1.6-3.6
				c-0.7-1-1.7-1.9-2.9-2.5c-1.2-0.6-2.6-1-4.3-1c-1.6,0-3,0.3-4.1,1c-1.1,0.7-2,1.5-2.7,2.6c-0.7,1.1-1.2,2.3-1.5,3.7
				c-0.3,1.4-0.5,2.8-0.5,4.3C586.9,264.5,587.1,265.8,587.4,267.1z"/>
			<path d="M637.9,275.8c-2.2,1.7-5,2.5-8.3,2.5c-2.4,0-4.4-0.4-6.1-1.2c-1.7-0.8-3.2-1.8-4.3-3.2c-1.2-1.4-2.1-3-2.6-5
				c-0.6-1.9-0.9-4-1-6.3c0-2.3,0.3-4.3,1-6.2c0.7-1.9,1.6-3.5,2.9-4.9c1.2-1.4,2.7-2.5,4.4-3.2c1.7-0.8,3.5-1.2,5.5-1.2
				c2.6,0,4.8,0.5,6.5,1.6c1.7,1.1,3.1,2.5,4.1,4.2c1,1.7,1.8,3.5,2.2,5.5c0.4,2,0.6,3.9,0.5,5.7h-22c0,1.3,0.1,2.5,0.5,3.7
				c0.3,1.2,0.9,2.2,1.6,3.1c0.8,0.9,1.7,1.6,2.9,2.2c1.2,0.5,2.6,0.8,4.1,0.8c2,0,3.7-0.5,5-1.4c1.3-1,2.2-2.4,2.6-4.4h4.8
				C641.5,271.6,640.1,274.1,637.9,275.8z M636.7,256.7c-0.4-1-1-1.9-1.8-2.7c-0.7-0.8-1.6-1.3-2.6-1.8c-1-0.4-2.1-0.7-3.3-0.7
				c-1.2,0-2.4,0.2-3.4,0.7c-1,0.4-1.9,1-2.6,1.8c-0.7,0.8-1.3,1.7-1.7,2.7c-0.4,1-0.7,2.1-0.7,3.3h16.9
				C637.4,258.8,637.1,257.7,636.7,256.7z"/>
			<path d="M680.9,253.1c-1.2-1-2.8-1.6-4.9-1.6c-1.7,0-3.2,0.3-4.4,1c-1.2,0.7-2.1,1.5-2.8,2.6c-0.7,1.1-1.2,2.3-1.5,3.7
				c-0.3,1.4-0.5,2.9-0.5,4.4c0,1.4,0.2,2.7,0.5,4c0.3,1.3,0.8,2.5,1.5,3.5c0.7,1,1.6,1.8,2.7,2.4c1.1,0.6,2.4,0.9,3.9,0.9
				c2.4,0,4.3-0.6,5.6-1.9c1.3-1.3,2.2-3.1,2.5-5.4h4.9c-0.5,3.7-1.9,6.5-4.1,8.5c-2.2,2-5.1,3-8.9,3c-2.2,0-4.2-0.4-5.9-1.1
				c-1.7-0.7-3.2-1.8-4.3-3.1c-1.2-1.3-2-2.9-2.6-4.8c-0.6-1.9-0.9-3.9-0.9-6.1c0-2.2,0.3-4.3,0.9-6.3c0.6-1.9,1.4-3.6,2.6-5.1
				c1.2-1.4,2.6-2.6,4.3-3.4c1.7-0.8,3.8-1.2,6.1-1.2c1.7,0,3.2,0.2,4.7,0.6c1.5,0.4,2.7,1,3.9,1.9c1.1,0.8,2,1.9,2.8,3.2
				c0.7,1.3,1.2,2.8,1.4,4.6h-5C682.9,255.6,682.2,254.2,680.9,253.1z"/>
			<path d="M693.2,256.7c0.6-1.9,1.5-3.6,2.7-5c1.2-1.4,2.7-2.5,4.5-3.3c1.8-0.8,3.8-1.2,6.1-1.2c2.4,0,4.4,0.4,6.2,1.2
				c1.8,0.8,3.2,1.9,4.5,3.3c1.2,1.4,2.1,3.1,2.7,5c0.6,1.9,0.9,3.9,0.9,6.1c0,2.2-0.3,4.2-0.9,6.1c-0.6,1.9-1.5,3.5-2.7,4.9
				c-1.2,1.4-2.7,2.5-4.5,3.3c-1.8,0.8-3.8,1.2-6.2,1.2c-2.3,0-4.4-0.4-6.1-1.2c-1.8-0.8-3.3-1.9-4.5-3.3c-1.2-1.4-2.1-3-2.7-4.9
				c-0.6-1.9-0.9-3.9-0.9-6.1C692.3,260.7,692.6,258.6,693.2,256.7z M698.1,267.7c0.5,1.4,1.1,2.6,2,3.5c0.8,0.9,1.8,1.7,2.9,2.2
				c1.1,0.5,2.3,0.7,3.6,0.7c1.3,0,2.4-0.2,3.6-0.7c1.1-0.5,2.1-1.2,2.9-2.2c0.8-0.9,1.5-2.1,2-3.5c0.5-1.4,0.7-3,0.7-4.8
				c0-1.8-0.2-3.4-0.7-4.8c-0.5-1.4-1.1-2.6-2-3.5c-0.8-1-1.8-1.7-2.9-2.2c-1.1-0.5-2.3-0.7-3.6-0.7c-1.2,0-2.4,0.3-3.6,0.7
				c-1.1,0.5-2.1,1.2-2.9,2.2c-0.8,1-1.5,2.1-2,3.5c-0.5,1.4-0.7,3-0.7,4.8C697.4,264.7,697.7,266.3,698.1,267.7z"/>
			<path d="M731.1,247.9v4.4h0.1c2.2-3.4,5.4-5.1,9.5-5.1c1.8,0,3.5,0.4,4.9,1.2c1.5,0.8,2.5,2.1,3.1,3.9c1-1.6,2.3-2.9,3.9-3.7
				c1.6-0.9,3.4-1.3,5.3-1.3c1.5,0,2.8,0.2,4,0.5c1.2,0.3,2.2,0.8,3.1,1.5c0.9,0.7,1.5,1.6,2,2.7c0.5,1.1,0.7,2.4,0.7,3.9v21.8h-4.8
				v-19.5c0-0.9-0.1-1.8-0.2-2.6c-0.2-0.8-0.4-1.5-0.9-2.1c-0.4-0.6-1-1.1-1.7-1.4c-0.7-0.3-1.7-0.5-2.9-0.5c-2.4,0-4.3,0.7-5.6,2.1
				c-1.4,1.4-2,3.2-2,5.5v18.6h-4.8v-19.5c0-1-0.1-1.8-0.3-2.7c-0.2-0.8-0.5-1.5-0.9-2.1c-0.4-0.6-1-1.1-1.7-1.4
				c-0.7-0.3-1.6-0.5-2.7-0.5c-1.4,0-2.6,0.3-3.6,0.9c-1,0.6-1.8,1.3-2.4,2.1c-0.6,0.8-1.1,1.6-1.4,2.5c-0.3,0.9-0.4,1.6-0.4,2.2
				v18.6h-4.8v-29.8H731.1z"/>
			<path d="M780,236.6V252h0.1c0.8-1.7,2-2.9,3.8-3.6c1.7-0.7,3.6-1.1,5.6-1.1c2.3,0,4.3,0.4,5.9,1.3c1.7,0.8,3.1,2,4.2,3.4
				c1.1,1.4,2,3.1,2.5,5c0.6,1.9,0.9,3.9,0.9,6c0,2.1-0.3,4.1-0.8,6s-1.4,3.5-2.5,4.9c-1.1,1.4-2.5,2.5-4.2,3.3
				c-1.7,0.8-3.6,1.2-5.9,1.2c-0.7,0-1.5-0.1-2.4-0.2c-0.9-0.2-1.8-0.4-2.6-0.8c-0.9-0.3-1.7-0.8-2.5-1.4c-0.8-0.6-1.4-1.3-2-2.2H780
				v4h-4.8v-41.1H780z M797.4,258.5c-0.4-1.3-0.9-2.5-1.6-3.5c-0.7-1-1.7-1.9-2.8-2.5c-1.2-0.6-2.5-0.9-4.1-0.9c-1.6,0-3,0.3-4.1,1
				c-1.1,0.7-2.1,1.5-2.8,2.6c-0.7,1.1-1.2,2.3-1.6,3.6c-0.3,1.3-0.5,2.7-0.5,4.1c0,1.5,0.2,2.9,0.5,4.2c0.3,1.4,0.9,2.6,1.6,3.6
				c0.7,1,1.7,1.9,2.9,2.5c1.2,0.6,2.6,0.9,4.3,0.9s3.1-0.3,4.2-1c1.1-0.7,2-1.5,2.7-2.6c0.7-1.1,1.2-2.3,1.5-3.7
				c0.3-1.4,0.5-2.8,0.5-4.3C797.9,261.2,797.7,259.8,797.4,258.5z"/>
			<path d="M828.5,277.7V273h-0.1c-1,1.8-2.3,3.2-3.9,4.1c-1.6,0.9-3.5,1.3-5.6,1.3c-1.9,0-3.5-0.3-4.8-0.8c-1.3-0.5-2.3-1.3-3.1-2.2
				c-0.8-1-1.4-2.1-1.7-3.4c-0.3-1.3-0.5-2.8-0.5-4.4v-19.6h4.8v20.2c0,1.8,0.5,3.3,1.6,4.4c1.1,1.1,2.5,1.6,4.4,1.6
				c1.5,0,2.8-0.2,3.8-0.7c1.1-0.5,2-1.1,2.7-2c0.7-0.8,1.3-1.8,1.6-3c0.4-1.1,0.5-2.4,0.5-3.7v-16.8h4.8v29.8H828.5z"/>
			<path d="M844,271.1c0.5,0.7,1.1,1.3,1.8,1.8c0.7,0.4,1.6,0.8,2.5,1c0.9,0.2,1.9,0.3,2.9,0.3c0.8,0,1.6-0.1,2.4-0.2
				c0.8-0.1,1.6-0.3,2.3-0.6c0.7-0.3,1.3-0.8,1.7-1.4c0.5-0.6,0.7-1.4,0.7-2.3c0-1.3-0.5-2.2-1.4-2.9c-0.9-0.7-2.1-1.2-3.6-1.6
				c-1.4-0.4-3-0.8-4.6-1.1c-1.7-0.3-3.2-0.8-4.6-1.4c-1.4-0.6-2.6-1.4-3.6-2.5s-1.4-2.6-1.4-4.5c0-1.5,0.3-2.8,1-3.9
				c0.7-1.1,1.5-2,2.6-2.6c1-0.7,2.2-1.2,3.5-1.5c1.3-0.3,2.6-0.5,3.9-0.5c1.7,0,3.2,0.1,4.6,0.4c1.4,0.3,2.6,0.8,3.7,1.5
				c1.1,0.7,1.9,1.7,2.6,2.9s1,2.7,1.1,4.5h-4.8c-0.1-1-0.3-1.8-0.7-2.4c-0.4-0.6-0.9-1.1-1.6-1.5c-0.6-0.4-1.4-0.7-2.1-0.8
				c-0.8-0.2-1.6-0.3-2.4-0.3c-0.7,0-1.4,0.1-2.2,0.2c-0.7,0.1-1.4,0.3-2,0.6c-0.6,0.3-1.1,0.7-1.5,1.2c-0.4,0.5-0.6,1.1-0.6,1.9
				c0,0.8,0.3,1.5,0.9,2.1c0.6,0.6,1.3,1,2.2,1.4c0.9,0.4,1.9,0.7,3.1,0.9c1.1,0.3,2.3,0.5,3.4,0.8c1.2,0.3,2.4,0.6,3.6,1
				c1.2,0.4,2.2,0.9,3.1,1.5c0.9,0.6,1.6,1.4,2.2,2.4c0.5,1,0.8,2.2,0.8,3.6c0,1.8-0.4,3.3-1.1,4.5c-0.7,1.2-1.7,2.2-2.9,2.9
				s-2.5,1.2-4,1.5c-1.5,0.3-3,0.4-4.5,0.4c-1.6,0-3.2-0.2-4.7-0.5c-1.5-0.3-2.8-0.9-3.9-1.7c-1.1-0.8-2-1.8-2.7-3.1
				c-0.7-1.3-1.1-2.9-1.1-4.7h4.8C843.3,269.4,843.5,270.3,844,271.1z"/>
			<path d="M881.3,247.9v4.3h-5.9v18.5c0,0.6,0,1,0.1,1.4c0.1,0.3,0.3,0.6,0.5,0.8c0.3,0.2,0.6,0.3,1.1,0.4c0.5,0.1,1.1,0.1,1.8,0.1
				h2.2v4.3h-3.7c-1.2,0-2.3-0.1-3.2-0.3c-0.9-0.2-1.6-0.5-2.2-1c-0.5-0.5-1-1.1-1.2-2c-0.3-0.8-0.4-2-0.4-3.3v-19h-5v-4.3h5V239h4.8
				v8.9H881.3z"/>
			<path d="M886.9,242.6v-6h4.8v6H886.9z M891.7,247.9v29.8h-4.8v-29.8H891.7z"/>
			<path d="M904.2,236.6V252h0.1c0.8-1.7,2-2.9,3.8-3.6c1.7-0.7,3.6-1.1,5.6-1.1c2.3,0,4.3,0.4,5.9,1.3c1.7,0.8,3.1,2,4.2,3.4
				c1.1,1.4,2,3.1,2.5,5c0.6,1.9,0.9,3.9,0.9,6c0,2.1-0.3,4.1-0.8,6c-0.5,1.9-1.4,3.5-2.5,4.9c-1.1,1.4-2.5,2.5-4.2,3.3
				c-1.7,0.8-3.6,1.2-5.9,1.2c-0.7,0-1.5-0.1-2.4-0.2c-0.9-0.2-1.8-0.4-2.6-0.8c-0.9-0.3-1.7-0.8-2.5-1.4c-0.8-0.6-1.4-1.3-2-2.2
				h-0.1v4h-4.8v-41.1H904.2z M921.6,258.5c-0.4-1.3-0.9-2.5-1.6-3.5c-0.7-1-1.7-1.9-2.8-2.5c-1.2-0.6-2.5-0.9-4.1-0.9
				c-1.6,0-3,0.3-4.1,1c-1.1,0.7-2.1,1.5-2.8,2.6c-0.7,1.1-1.2,2.3-1.6,3.6c-0.3,1.3-0.5,2.7-0.5,4.1c0,1.5,0.2,2.9,0.5,4.2
				c0.3,1.4,0.9,2.6,1.6,3.6c0.7,1,1.7,1.9,2.9,2.5c1.2,0.6,2.6,0.9,4.3,0.9c1.7,0,3.1-0.3,4.2-1c1.1-0.7,2-1.5,2.7-2.6
				c0.7-1.1,1.2-2.3,1.5-3.7c0.3-1.4,0.5-2.8,0.5-4.3C922.1,261.2,921.9,259.8,921.6,258.5z"/>
			<path d="M938,236.6v41.1h-4.8v-41.1H938z"/>
			<path d="M966.3,275.8c-2.2,1.7-5,2.5-8.3,2.5c-2.4,0-4.4-0.4-6.1-1.2c-1.7-0.8-3.2-1.8-4.3-3.2c-1.2-1.4-2.1-3-2.6-5
				c-0.6-1.9-0.9-4-1-6.3c0-2.3,0.3-4.3,1-6.2c0.7-1.9,1.6-3.5,2.9-4.9c1.2-1.4,2.7-2.5,4.4-3.2c1.7-0.8,3.5-1.2,5.5-1.2
				c2.6,0,4.8,0.5,6.5,1.6c1.7,1.1,3.1,2.5,4.1,4.2c1,1.7,1.8,3.5,2.2,5.5c0.4,2,0.6,3.9,0.5,5.7h-22c0,1.3,0.1,2.5,0.5,3.7
				c0.3,1.2,0.9,2.2,1.6,3.1c0.8,0.9,1.7,1.6,2.9,2.2c1.2,0.5,2.6,0.8,4.1,0.8c2,0,3.7-0.5,5-1.4c1.3-1,2.2-2.4,2.6-4.4h4.8
				C969.9,271.6,968.5,274.1,966.3,275.8z M965.2,256.7c-0.4-1-1-1.9-1.8-2.7c-0.7-0.8-1.6-1.3-2.6-1.8c-1-0.4-2.1-0.7-3.3-0.7
				c-1.2,0-2.4,0.2-3.4,0.7c-1,0.4-1.9,1-2.6,1.8c-0.7,0.8-1.3,1.7-1.7,2.7c-0.4,1-0.7,2.1-0.7,3.3h16.9
				C965.9,258.8,965.6,257.7,965.2,256.7z"/>
			<path d="M979.7,271.1c0.5,0.7,1.1,1.3,1.8,1.8c0.7,0.4,1.6,0.8,2.5,1c0.9,0.2,1.9,0.3,2.9,0.3c0.8,0,1.6-0.1,2.4-0.2
				c0.8-0.1,1.6-0.3,2.3-0.6c0.7-0.3,1.3-0.8,1.7-1.4c0.5-0.6,0.7-1.4,0.7-2.3c0-1.3-0.5-2.2-1.4-2.9c-0.9-0.7-2.1-1.2-3.6-1.6
				c-1.4-0.4-3-0.8-4.6-1.1c-1.7-0.3-3.2-0.8-4.6-1.4c-1.4-0.6-2.6-1.4-3.6-2.5c-0.9-1.1-1.4-2.6-1.4-4.5c0-1.5,0.3-2.8,1-3.9
				c0.7-1.1,1.5-2,2.6-2.6c1-0.7,2.2-1.2,3.5-1.5c1.3-0.3,2.6-0.5,3.9-0.5c1.7,0,3.2,0.1,4.6,0.4c1.4,0.3,2.6,0.8,3.7,1.5
				c1.1,0.7,1.9,1.7,2.6,2.9s1,2.7,1.1,4.5H993c-0.1-1-0.3-1.8-0.7-2.4c-0.4-0.6-0.9-1.1-1.6-1.5c-0.6-0.4-1.4-0.7-2.1-0.8
				c-0.8-0.2-1.6-0.3-2.4-0.3c-0.7,0-1.4,0.1-2.2,0.2c-0.7,0.1-1.4,0.3-2,0.6c-0.6,0.3-1.1,0.7-1.5,1.2c-0.4,0.5-0.6,1.1-0.6,1.9
				c0,0.8,0.3,1.5,0.9,2.1c0.6,0.6,1.3,1,2.2,1.4c0.9,0.4,1.9,0.7,3.1,0.9c1.1,0.3,2.3,0.5,3.4,0.8c1.2,0.3,2.4,0.6,3.6,1
				c1.2,0.4,2.2,0.9,3.1,1.5c0.9,0.6,1.6,1.4,2.2,2.4c0.5,1,0.8,2.2,0.8,3.6c0,1.8-0.4,3.3-1.1,4.5c-0.7,1.2-1.7,2.2-2.9,2.9
				s-2.5,1.2-4,1.5c-1.5,0.3-3,0.4-4.5,0.4c-1.6,0-3.2-0.2-4.7-0.5c-1.5-0.3-2.8-0.9-3.9-1.7c-1.1-0.8-2-1.8-2.7-3.1
				c-0.7-1.3-1.1-2.9-1.1-4.7h4.8C979,269.4,979.3,270.3,979.7,271.1z"/>
		</g>
	</g>
	<g>
		<path class="st0" d="M281.3,57.9L164.4,7L47.4,57.9L0,176l49.6,116.8l114.8,47.5l114.8-47.5L328.8,176L281.3,57.9z M271.5,284.8
			l-107.1,44.3L57.2,284.8L11,175.8L55.3,65.6l109.1-47.5l109.1,47.5l44.3,110.2L271.5,284.8z"/>
		<path class="st0" d="M140.5,76.9c0,0,17.1,41.8-11.6,75.4c-28.7,33.6-27.1,66.7-6.4,86.6c26.4,29.7,95.3,19.4,99-46.8
			C225.3,125.8,138.8,76.6,140.5,76.9z"/>
		<path class="st1" d="M149.4,89.3c0,0,12.9,38.4-14.8,66.7c-27.7,28.3-28.2,58-10.8,77c21.9,28.2,84.1,23.1,91.3-35.9
			C222.4,138.1,147.9,88.9,149.4,89.3z"/>
		<path class="st2" d="M171.8,126.6c0,0,38.4,29.6,25.9,78.3C197.8,204.9,220.5,155.1,171.8,126.6z"/>
	</g>
</svg>
