<?xml version="1.0" standalone="no"?>
<!DOCTYPE svg PUBLIC "-//W3C//DTD SVG 20010904//EN"
 "http://www.w3.org/TR/2001/REC-SVG-20010904/DTD/svg10.dtd">
<svg version="1.0" xmlns="http://www.w3.org/2000/svg"
 width="260.000000pt" height="260.000000pt" viewBox="0 0 260.000000 260.000000"
 preserveAspectRatio="xMidYMid meet">
<metadata>
Created by potrace 1.11, written by Peter Selinger 2001-2013
</metadata>
<g transform="translate(0.000000,260.000000) scale(0.100000,-0.100000)"
fill="#000000" stroke="none">
<path d="M980 2169 c-179 -77 -338 -145 -354 -152 -24 -11 -37 -35 -97 -182
-38 -94 -73 -179 -78 -190 -6 -11 -39 -94 -76 -185 l-66 -166 150 -348 c83
-192 152 -350 153 -351 2 -1 100 -42 218 -90 196 -79 245 -100 305 -126 11 -4
55 -22 98 -39 l78 -30 349 142 348 142 98 225 c53 125 107 249 119 276 12 28
36 84 54 125 l32 75 -102 250 c-56 138 -121 297 -144 355 l-43 105 -353 152
c-195 84 -356 152 -359 152 -3 0 -151 -63 -330 -140z m655 -66 c176 -75 325
-141 332 -147 10 -9 247 -580 267 -643 6 -18 -68 -205 -160 -408 -7 -16 -35
-82 -63 -145 l-49 -115 -259 -106 c-142 -59 -274 -113 -293 -121 -104 -45 -85
-48 -315 47 -116 47 -221 91 -235 97 -14 5 -65 26 -114 47 l-88 36 -140 326
-140 326 132 324 c72 178 137 329 143 335 7 6 115 55 241 108 233 99 317 136
371 161 17 7 34 14 40 14 5 1 153 -60 330 -136z"/>
<path d="M1168 1874 c31 -57 32 -215 4 -297 -19 -54 -57 -116 -101 -167 -102
-116 -135 -293 -77 -408 24 -48 92 -118 137 -143 74 -39 199 -44 288 -10 148
56 230 182 236 362 3 74 -1 99 -24 166 -33 96 -97 196 -182 284 -68 70 -188
170 -253 209 -35 21 -37 21 -28 4z"/>
</g>
</svg>
